<?xml version="1.0" encoding="utf-8"?>
<svg viewBox="122.074 84.741 261.185 264.741" xmlns="http://www.w3.org/2000/svg" xmlns:bx="https://boxy-svg.com">
  <defs>
    <path id="a" d="M2.991,0.815A3.1,3.1 0 0 0 2.991,-0.815L4.825,-1.311A5,5 0 0 1 4.825,1.311"/>
  </defs>
  <g transform="matrix(20, 0, 0, 20, 246.666662, 220.148142)">
    <path d="M2.991,0.815A3.1,3.1 0 0 0 2.991,-0.815L4.825,-1.311A5,5 0 0 1 4.825,1.311" transform="matrix(1, 0, 0, 1, 0, 0)" fill="#fd5308"/>
    <path d="M2.991,0.815A3.1,3.1 0 0 0 2.991,-0.815L4.825,-1.311A5,5 0 0 1 4.825,1.311" transform="matrix(0.8660254037844387, 0.49999999999999994, -0.49999999999999994, 0.8660254037844387, 0, 0)" fill="#fe2712"/>
    <path d="M2.991,0.815A3.1,3.1 0 0 0 2.991,-0.815L4.825,-1.311A5,5 0 0 1 4.825,1.311" transform="matrix(0.5000000000000001, 0.8660254037844386, -0.8660254037844386, 0.5000000000000001, 0, 0)" fill="#a7194b"/>
    <path d="M2.991,0.815A3.1,3.1 0 0 0 2.991,-0.815L4.825,-1.311A5,5 0 0 1 4.825,1.311" transform="matrix(6.123233995736766e-17, 1, -1, 6.123233995736766e-17, 0, 0)" fill="#8601af"/>
    <path d="M2.991,0.815A3.1,3.1 0 0 0 2.991,-0.815L4.825,-1.311A5,5 0 0 1 4.825,1.311" transform="matrix(-0.4999999999999998, 0.8660254037844387, -0.8660254037844387, -0.4999999999999998, 0, 0)" fill="#3d01a4"/>
    <path d="M2.991,0.815A3.1,3.1 0 0 0 2.991,-0.815L4.825,-1.311A5,5 0 0 1 4.825,1.311" transform="matrix(-0.8660254037844387, 0.49999999999999994, -0.49999999999999994, -0.8660254037844387, 0, 0)" fill="#0247fe"/>
    <path d="M2.991,0.815A3.1,3.1 0 0 0 2.991,-0.815L4.825,-1.311A5,5 0 0 1 4.825,1.311" transform="matrix(-1, 1.2246467991473532e-16, -1.2246467991473532e-16, -1, 0, 0)" fill="#0392ce"/>
    <path d="M2.991,0.815A3.1,3.1 0 0 0 2.991,-0.815L4.825,-1.311A5,5 0 0 1 4.825,1.311" transform="matrix(-0.8660254037844386, -0.5000000000000001, 0.5000000000000001, -0.8660254037844386, 0, 0)" fill="#66b032"/>
    <path d="M2.991,0.815A3.1,3.1 0 0 0 2.991,-0.815L4.825,-1.311A5,5 0 0 1 4.825,1.311" transform="matrix(-0.5000000000000004, -0.8660254037844384, 0.8660254037844384, -0.5000000000000004, 0, 0)" fill="#d0ea2b"/>
    <path d="M2.991,0.815A3.1,3.1 0 0 0 2.991,-0.815L4.825,-1.311A5,5 0 0 1 4.825,1.311" transform="matrix(-1.8369701987210297e-16, -1, 1, -1.8369701987210297e-16, 0, 0)" fill="#fefe33"/>
    <path d="M2.991,0.815A3.1,3.1 0 0 0 2.991,-0.815L4.825,-1.311A5,5 0 0 1 4.825,1.311" transform="matrix(0.5000000000000001, -0.8660254037844386, 0.8660254037844386, 0.5000000000000001, 0, 0)" fill="#fabc02"/>
    <path d="M2.991,0.815A3.1,3.1 0 0 0 2.991,-0.815L4.825,-1.311A5,5 0 0 1 4.825,1.311" transform="matrix(0.8660254037844384, -0.5000000000000004, 0.5000000000000004, 0.8660254037844384, 0, 0)" fill="#fb9902"/>
    <g font-size="0.75px" font-family="helvetica"/>
    <text style="fill: rgb(148, 78, 78); font-family: Impact; font-size: 1.89773px; white-space: pre;" transform="matrix(1.000963, 0.003739, 0.040302, 0.999188, -1.15216, 0.70473)" x="-1.415" y="-0.17" bx:origin="0.489 0.549">Colors</text>
  </g>
</svg>