<?xml version="1.0" encoding="utf-8"?>
<svg viewBox="170.515 53.286 172.469 158.26" xmlns="http://www.w3.org/2000/svg" xmlns:bx="https://boxy-svg.com">
  <defs>
    <path id="path-0" d="M 131.083 60.213 C 180.358 87.922 186.792 96.182 192.185 98.579 C 205.08 104.31 217.263 106.579 230.551 109.236 L 236.945 109.236 C 255.62 106.124 263.995 103.784 259.68 84.369" style="fill: none;"/>
    <path id="path-1" d="M 144.583 53.819 C 177.309 67.821 183.464 76.457 193.606 81.528 C 213.863 82.238 235.389 74.941 251.865 69.449 L 252.575 68.739 L 253.286 68.028" style="fill: none;"/>
    <path id="text-path-0" d="M 65.20897674560547 96.32711410522461 Q 118.36727905273438 68.61841583251953 171.52558135986328 96.32711410522461"/>
    <filter id="drop-shadow-filter-0" color-interpolation-filters="sRGB" x="-500%" y="-500%" width="1000%" height="1000%" bx:preset="drop-shadow 1 10 10 0 0.5 rgba(0,0,0,0.3)">
      <feGaussianBlur in="SourceAlpha" stdDeviation="0"/>
      <feOffset dx="10" dy="10"/>
      <feComponentTransfer result="offsetblur">
        <feFuncA id="spread-ctrl" type="linear" slope="1"/>
      </feComponentTransfer>
      <feFlood flood-color="rgba(0,0,0,0.3)"/>
      <feComposite in2="offsetblur" operator="in"/>
      <feMerge>
        <feMergeNode/>
        <feMergeNode in="SourceGraphic"/>
      </feMerge>
    </filter>
    <filter id="drop-shadow-filter-1" color-interpolation-filters="sRGB" x="-500%" y="-500%" width="1000%" height="1000%" bx:preset="drop-shadow 1 10 10 0 0.5 rgba(0,0,0,0.3)">
      <feGaussianBlur in="SourceAlpha" stdDeviation="0"/>
      <feOffset dx="10" dy="10"/>
      <feComponentTransfer result="offsetblur">
        <feFuncA id="spread-ctrl" type="linear" slope="1"/>
      </feComponentTransfer>
      <feFlood flood-color="rgba(0,0,0,0.3)"/>
      <feComposite in2="offsetblur" operator="in"/>
      <feMerge>
        <feMergeNode/>
        <feMergeNode in="SourceGraphic"/>
      </feMerge>
    </filter>
    <path id="path-2" d="M 178.686 168.206 C 186.647 190.523 193.942 204.44 200 204.44 C 206.763 210.493 217.338 212.256 225.577 212.256 C 241.616 215.91 250.264 209.247 264.654 205.861 C 272.335 200.311 277.108 192.132 279.574 185.968 C 289.309 170.299 290.231 167.283 290.231 158.97 C 286.149 150.096 288.81 140.286 288.81 134.103 L 288.81 133.393 L 288.81 131.972" style="fill: none;"/>
    <path id="path-3" d="M 190.764 166.785 C 197.591 190.958 205.68 200.531 214.92 205.151 C 227.341 209.291 238.503 206.183 248.313 203.73 L 249.734 203.02 C 250.024 202.438 250.864 201.47 251.155 200.888" style="fill: none;"/>
    <clipPath id="a-7">
      <path d="m0 0h80.702v80h-80.702z" fill="#fff"/>
    </clipPath>
    <linearGradient id="grd1" gradientUnits="userSpaceOnUse" x1="441.371" y1="289.341" x2="483.557" y2="335.773">
      <stop offset="0" stop-color="#141f5d"/>
      <stop offset="0.814" stop-color="#4ad1f6"/>
    </linearGradient>
    <linearGradient id="grd2" gradientUnits="userSpaceOnUse" x1="410.201" y1="281.367" x2="461.157" y2="291.858">
      <stop offset="0" stop-color="#141f5d"/>
      <stop offset="1" stop-color="#4ad1f6"/>
    </linearGradient>
    <linearGradient id="grd3" gradientUnits="userSpaceOnUse" x1="412.689" y1="277.536" x2="466.019" y2="297.435">
      <stop offset="0" stop-color="#141f5d"/>
      <stop offset="0.895" stop-color="#4ad1f6"/>
    </linearGradient>
    <linearGradient id="grd4" gradientUnits="userSpaceOnUse" x1="375.579" y1="387.74" x2="346.394" y2="342.37">
      <stop offset="0" stop-color="#141f5d"/>
      <stop offset="1" stop-color="#4ad1f6"/>
    </linearGradient>
    <linearGradient id="grd5" gradientUnits="userSpaceOnUse" x1="353.074" y1="172.914" x2="387.129" y2="260.209">
      <stop offset="0" stop-color="#547f9d"/>
      <stop offset="1" stop-color="#ffffff"/>
    </linearGradient>
    <linearGradient id="grd6" gradientUnits="userSpaceOnUse" x1="274.322" y1="240.982" x2="293.439" y2="181.232">
      <stop offset="0" stop-color="#141f5d"/>
      <stop offset="0.814" stop-color="#4ad1f6"/>
    </linearGradient>
    <linearGradient id="grd7" gradientUnits="userSpaceOnUse" x1="283.002" y1="271.962" x2="266.609" y2="222.589">
      <stop offset="0" stop-color="#141f5d"/>
      <stop offset="1" stop-color="#4ad1f6"/>
    </linearGradient>
    <linearGradient id="grd8" gradientUnits="userSpaceOnUse" x1="278.44" y1="271.724" x2="269.008" y2="215.589">
      <stop offset="0" stop-color="#141f5d"/>
      <stop offset="0.895" stop-color="#4ad1f6"/>
    </linearGradient>
    <linearGradient id="grd10" gradientUnits="userSpaceOnUse" x1="315.971" y1="409.831" x2="254.667" y2="423.149">
      <stop offset="0" stop-color="#141f5d"/>
      <stop offset="0.814" stop-color="#4ad1f6"/>
    </linearGradient>
    <linearGradient id="grd11" gradientUnits="userSpaceOnUse" x1="338.462" y1="386.825" x2="303.898" y2="425.709">
      <stop offset="0" stop-color="#141f5d"/>
      <stop offset="1" stop-color="#4ad1f6"/>
    </linearGradient>
    <linearGradient id="grd12" gradientUnits="userSpaceOnUse" x1="340.536" y1="390.895" x2="296.637" y2="427.129">
      <stop offset="0" stop-color="#141f5d"/>
      <stop offset="0.895" stop-color="#4ad1f6"/>
    </linearGradient>
  </defs>
  <g transform="matrix(0.13735, 0, 0, 0.13735, 87.114863, 27.353458)" style="filter: url(#drop-shadow-filter-0) url(#drop-shadow-filter-1);"/>
  <g transform="matrix(2.997336, 0, 0, 2.997336, 146.003566, 207.992873)">
    <g transform="matrix(.74307 0 0 .74307 -50.484 -18.943)">
      <g transform="translate(-242.29,-151.34)" fill="#fff">
        <g transform="translate(-.0041 .00216)" fill="#fff"/>
      </g>
      <g transform="matrix(1.3453,0,0,1.3453,67.44,25.523)" fill="none">
        <g clip-path="url(#a-7)"/>
      </g>
    </g>
  </g>
  <g transform="matrix(0.342553, 0, 0, 0.342553, 139.609238, 6.927178)">
    <title>REJO logo with text below</title>
    <g id="Background" style="display: none">
      <path id="&lt;Path&gt;" class="shp0" d="M-400 -150L-400 850L1100 850L1100 -150L-400 -150Z" style="fill: rgb(230, 231, 232);"/>
      <g id="&lt;Group&gt;">
        <path id="&lt;Path&gt;" class="shp1" d="M-248.39 39.69C-248.39 28.92 -257.24 20.19 -268.14 20.19C-279.06 20.19 -287.9 28.92 -287.9 39.69C-287.9 50.46 -279.06 59.19 -268.14 59.19C-257.24 59.19 -248.39 50.46 -248.39 39.69Z" style="fill: rgb(208, 210, 211); mix-blend-mode: multiply;"/>
        <path id="&lt;Path&gt;" class="shp1" d="M-153.24 -126.47C-153.24 -137.55 -162.35 -146.53 -173.57 -146.53C-184.8 -146.53 -193.9 -137.55 -193.9 -126.47C-193.9 -115.38 -184.8 -106.4 -173.57 -106.4C-162.35 -106.4 -153.24 -115.38 -153.24 -126.47Z" style="fill: rgb(208, 210, 211); mix-blend-mode: multiply;"/>
        <path id="&lt;Path&gt;" class="shp1" d="M-92.78 -107.95C-92.78 -115.72 -99.16 -122.01 -107.02 -122.01C-114.89 -122.01 -121.27 -115.72 -121.27 -107.95C-121.27 -100.18 -114.89 -93.89 -107.02 -93.89C-99.16 -93.89 -92.78 -100.18 -92.78 -107.95Z" style="fill: rgb(208, 210, 211); mix-blend-mode: multiply;"/>
        <path id="&lt;Compound Path&gt;" fill-rule="evenodd" class="shp1" d="M-214.5 -72.79C-214.5 -53.93 -230.02 -38.65 -249.12 -38.65C-268.21 -38.65 -283.65 -53.93 -283.65 -72.79C-283.65 -91.56 -268.21 -106.84 -249.12 -106.84C-230.02 -106.84 -214.5 -91.56 -214.5 -72.79ZM-221.1 -72.79C-221.1 -87.99 -233.68 -100.4 -249.12 -100.4C-264.56 -100.4 -277.13 -87.99 -277.13 -72.79C-277.13 -57.51 -264.56 -45.09 -249.12 -45.09C-233.68 -45.09 -221.1 -57.51 -221.1 -72.79Z" style="fill: rgb(208, 210, 211); mix-blend-mode: multiply;"/>
        <path id="&lt;Compound Path&gt;" fill-rule="evenodd" class="shp1" d="M-335.37 172.91C-335.37 179.55 -340.86 184.95 -347.61 184.95C-354.36 184.95 -359.83 179.55 -359.83 172.91C-359.83 166.21 -354.36 160.81 -347.61 160.81C-340.86 160.81 -335.37 166.21 -335.37 172.91ZM-341.63 172.88C-341.63 169.62 -344.29 166.99 -347.61 166.99C-350.9 166.99 -353.59 169.62 -353.59 172.88C-353.59 176.14 -350.9 178.77 -347.61 178.77C-344.29 178.77 -341.63 176.14 -341.63 172.88Z" style="fill: rgb(208, 210, 211); mix-blend-mode: multiply;"/>
        <path id="&lt;Path&gt;" class="shp1" d="M-397.49 -150C-398.3 -149.9 -399.15 -149.76 -400 -149.67L-400 -140.15C-387.6 -141.62 -375.72 -144.74 -364.5 -149.24C-363.84 -149.43 -363.17 -149.72 -362.51 -150L-397.49 -150Z" style="fill: rgb(208, 210, 211); mix-blend-mode: multiply;"/>
        <path id="&lt;Path&gt;" class="shp2" d="M-240.34 110.77C-240.77 111.24 -241.52 111.24 -242 110.77L-295.67 57.8L-337.57 16.43L-349.31 4.88L-393.04 -38.29L-400 -45.2L-400 -48.47L-391.1 -39.71L-347.84 2.99L-336.05 14.63L-293.31 56.85L-240.34 109.11C-239.87 109.59 -239.87 110.29 -240.34 110.77Z" style="fill: rgb(237, 237, 238); mix-blend-mode: multiply;"/>
        <path id="&lt;Compound Path&gt;" fill-rule="evenodd" class="shp1" d="M-345.47 -126.05C-345.47 -116.06 -349.78 -107.02 -356.64 -100.77C-359.01 -98.55 -361.66 -96.65 -364.59 -95.23C-369.38 -92.72 -374.87 -91.35 -380.64 -91.35C-387.79 -91.35 -394.46 -93.48 -400 -97.08L-400 -105.46C-394.93 -100.72 -388.12 -97.93 -380.64 -97.93C-364.93 -97.93 -352.15 -110.52 -352.15 -126.05C-352.15 -135.66 -357.02 -144.13 -364.5 -149.24C-364.88 -149.48 -365.31 -149.76 -365.73 -150L-355.27 -150C-349.16 -143.8 -345.47 -135.32 -345.47 -126.05ZM-395.55 -150C-397.16 -149.05 -398.63 -147.96 -400 -146.64L-400 -150L-395.55 -150Z" style="fill: rgb(208, 210, 211); mix-blend-mode: multiply;"/>
        <path id="&lt;Compound Path&gt;" fill-rule="evenodd" class="shp1" d="M-310.82 119.48C-310.82 130.51 -319.86 139.45 -331.03 139.45C-342.21 139.45 -351.24 130.51 -351.24 119.48C-351.24 108.4 -342.21 99.45 -331.03 99.45C-319.86 99.45 -310.82 108.4 -310.82 119.48ZM-317.83 119.48C-317.83 112.28 -323.75 106.41 -331.03 106.41C-338.32 106.41 -344.29 112.28 -344.29 119.48C-344.29 126.67 -338.32 132.49 -331.03 132.49C-323.75 132.49 -317.83 126.67 -317.83 119.48Z" style="fill: rgb(208, 210, 211); mix-blend-mode: multiply;"/>
        <path id="&lt;Compound Path&gt;" class="shp1" d="M-373.4 -61.53C-383.29 -61.53 -392.43 -58.6 -400 -53.49L-400 -30.34C-398.2 -33.37 -395.83 -36.06 -393.04 -38.29C-392.43 -38.81 -391.76 -39.29 -391.1 -39.71C-386.08 -43.16 -379.98 -45.2 -373.4 -45.2C-356.22 -45.2 -342.3 -31.38 -342.3 -14.53C-342.3 -8 -344.38 -1.94 -347.84 2.99C-348.31 3.65 -348.78 4.27 -349.31 4.88C-354.99 11.79 -363.65 16.19 -373.4 16.19C-384.66 16.19 -394.56 10.28 -400 1.37L-400 24.48C-392.43 29.59 -383.29 32.52 -373.4 32.52C-359.06 32.52 -346.23 26.27 -337.57 16.43C-337 15.86 -336.53 15.25 -336.05 14.63C-329.62 6.63 -325.78 -3.5 -325.78 -14.53C-325.78 -40.47 -347.08 -61.53 -373.4 -61.53Z" style="fill: rgb(208, 210, 211); mix-blend-mode: multiply;"/>
        <path id="&lt;Path&gt;" class="shp3" d="M-358.71 -101.13C-360.22 -101.13 -361.7 -100.57 -362.84 -99.42C-365.15 -97.19 -365.15 -93.52 -362.84 -91.27L-227.19 42.62C-224.91 44.88 -221.2 44.88 -218.94 42.62C-216.65 40.38 -216.65 36.73 -218.94 34.46L-354.59 -99.42C-355.74 -100.57 -357.22 -101.13 -358.71 -101.13Z" style="fill: rgb(219, 220, 221); mix-blend-mode: multiply;"/>
        <g id="&lt;Group&gt;">
          <path id="&lt;Path&gt;" class="shp2" d="M-171.61 -141L-180.7 -150L-187.28 -150L-171.23 -134.14L-92.33 -56.28C-92.33 -56.32 -92.28 -56.32 -92.23 -56.37C-91.19 -57.46 -90.15 -58.5 -89.11 -59.59L-171.61 -141Z" style="fill: rgb(237, 237, 238); mix-blend-mode: multiply;"/>
          <path id="&lt;Path&gt;" class="shp2" d="M-173.13 -97.32L-226.52 -150L-233.19 -150L-174.02 -91.64L-117.98 -36.3C-116.61 -37.15 -115.24 -37.95 -113.91 -38.86L-173.13 -97.32Z" style="fill: rgb(237, 237, 238); mix-blend-mode: multiply;"/>
          <path id="&lt;Path&gt;" class="shp2" d="M-171.23 -118L-203.66 -150L-210.28 -150L-171.56 -111.8L-104.49 -45.63C-103.31 -46.57 -102.03 -47.57 -100.9 -48.56L-171.23 -118Z" style="fill: rgb(237, 237, 238); mix-blend-mode: multiply;"/>
          <path id="&lt;Path&gt;" class="shp2" d="M-176.91 -78.19L-249.53 -150L-256.2 -150L-178.29 -72.98L-110.31 -5.82C-108.8 -6.53 -107.33 -7.24 -105.86 -8L-176.91 -78.19Z" style="fill: rgb(237, 237, 238); mix-blend-mode: multiply;"/>
          <path id="&lt;Path&gt;" class="shp2" d="M-324.97 -111.47C-323.84 -107.97 -322.56 -104.51 -321.14 -101.1L-245.45 -26.41C-242 -24.99 -238.54 -23.71 -234.99 -22.62L-324.97 -111.47Z" style="fill: rgb(237, 237, 238); mix-blend-mode: multiply;"/>
          <path id="&lt;Path&gt;" class="shp2" d="M-196.32 -29.49L-318.21 -150L-324.83 -150L-198.69 -25.32L-172.8 0.29C-170.67 0.24 -168.58 0.14 -166.45 0L-196.32 -29.49Z" style="fill: rgb(237, 237, 238); mix-blend-mode: multiply;"/>
          <path id="&lt;Path&gt;" class="shp2" d="M-182.07 -60.87L-272.39 -150L-278.96 -150L-183.83 -56.08L-149.46 -22.15C-147.81 -22.67 -146.14 -23.19 -144.49 -23.75L-182.07 -60.87Z" style="fill: rgb(237, 237, 238); mix-blend-mode: multiply;"/>
          <path id="&lt;Path&gt;" class="shp2" d="M-331.13 -140.15C-330.89 -137.64 -330.56 -135.09 -330.13 -132.62L-213.55 -17.51C-210.99 -17.13 -208.44 -16.8 -205.88 -16.56L-331.13 -140.15Z" style="fill: rgb(237, 237, 238); mix-blend-mode: multiply;"/>
          <path id="&lt;Path&gt;" class="shp2" d="M-188.61 -44.63L-295.3 -150L-301.92 -150L-190.69 -40.23L-167.97 -17.79C-166.08 -18.08 -164.23 -18.46 -162.43 -18.79L-188.61 -44.63Z" style="fill: rgb(237, 237, 238); mix-blend-mode: multiply;"/>
          <path id="&lt;Path&gt;" class="shp2" d="M-157.74 -150L-164.37 -150L-81.54 -68.25C-80.59 -69.43 -79.59 -70.66 -78.65 -71.94L-157.74 -150Z" style="fill: rgb(237, 237, 238); mix-blend-mode: multiply;"/>
          <path id="&lt;Path&gt;" class="shp2" d="M-134.88 -150L-141.41 -150L-72.07 -81.55C-71.26 -82.88 -70.41 -84.25 -69.61 -85.58L-134.88 -150Z" style="fill: rgb(237, 237, 238); mix-blend-mode: multiply;"/>
          <path id="&lt;Path&gt;" class="shp2" d="M-66.58 -150L-73.16 -150L-8.17 -85.67C-7.84 -87.56 -7.55 -89.46 -7.27 -91.3L-66.58 -150Z" style="fill: rgb(237, 237, 238); mix-blend-mode: multiply;"/>
          <path id="&lt;Path&gt;" class="shp2" d="M-112.49 -150L-119.07 -150L13.04 -19.12C13.7 -20.63 14.36 -22.15 15.03 -23.66L-112.49 -150Z" style="fill: rgb(237, 237, 238); mix-blend-mode: multiply;"/>
          <path id="&lt;Path&gt;" class="shp2" d="M-89.01 -150L-95.64 -150L-57.68 -112.51C-57.16 -114.22 -56.64 -115.87 -56.16 -117.57L-89.01 -150Z" style="fill: rgb(237, 237, 238); mix-blend-mode: multiply;"/>
        </g>
        <path id="&lt;Path&gt;" class="shp3" d="M-171.04 -125.86C-171.04 -123.21 -171.09 -120.61 -171.23 -118C-171.28 -115.92 -171.37 -113.88 -171.56 -111.8C-171.9 -106.92 -172.42 -102.1 -173.13 -97.32C-173.36 -95.42 -173.7 -93.53 -174.02 -91.64C-174.83 -87.09 -175.78 -82.59 -176.91 -78.19C-177.34 -76.44 -177.77 -74.69 -178.29 -72.98C-179.42 -68.87 -180.7 -64.84 -182.07 -60.87C-182.64 -59.26 -183.21 -57.65 -183.83 -56.08C-185.29 -52.21 -186.9 -48.37 -188.61 -44.63C-189.27 -43.16 -189.98 -41.65 -190.69 -40.23C-192.44 -36.59 -194.33 -32.99 -196.32 -29.49C-197.08 -28.06 -197.88 -26.69 -198.69 -25.32C-208.49 -8.9 -220.6 6.01 -234.62 18.99C-237.45 21.64 -240.34 24.19 -243.37 26.65C-258.33 38.96 -275.13 49.18 -293.31 56.85C-294.11 57.18 -294.87 57.47 -295.67 57.8C-319.25 67.36 -345.09 72.66 -372.17 72.66C-381.63 72.66 -390.91 72 -400 70.77L-400 -150L-172.51 -150C-172.13 -147.02 -171.85 -144.03 -171.61 -141C-171.47 -138.73 -171.33 -136.41 -171.23 -134.14C-171.09 -131.39 -171.04 -128.65 -171.04 -125.86Z" style="fill: rgb(219, 220, 221); mix-blend-mode: multiply;"/>
      </g>
      <g id="&lt;Group&gt;">
        <path id="&lt;Path&gt;" class="shp2" d="M724.43 742.95C723.63 743.76 722.73 744.52 721.87 745.37C721.87 745.42 721.82 745.42 721.78 745.46L827.14 849.98L832.35 849.98L724.43 742.95Z" style="fill: rgb(237, 237, 238); mix-blend-mode: multiply;"/>
        <path id="&lt;Path&gt;" class="shp2" d="M808.16 844.54C807.36 845.48 806.6 846.43 805.84 847.38L808.5 849.98L813.7 849.98L808.16 844.54Z" style="fill: rgb(237, 237, 238); mix-blend-mode: multiply;"/>
        <path id="&lt;Path&gt;" class="shp2" d="M826.77 827.3C825.78 828.06 824.78 828.82 823.84 829.57L844.52 849.98L849.73 849.98L826.77 827.3Z" style="fill: rgb(237, 237, 238); mix-blend-mode: multiply;"/>
        <path id="&lt;Path&gt;" class="shp2" d="M895.21 806L890.01 806L934.55 849.98L939.76 849.98L895.21 806Z" style="fill: rgb(237, 237, 238); mix-blend-mode: multiply;"/>
        <path id="&lt;Path&gt;" class="shp2" d="M915.66 808.42C913.53 807.95 911.45 807.57 909.27 807.23L952.58 849.98L957.74 849.98L915.66 808.42Z" style="fill: rgb(237, 237, 238); mix-blend-mode: multiply;"/>
        <path id="&lt;Path&gt;" class="shp2" d="M943.92 818.5C940.75 816.84 937.48 815.38 934.17 814.05L970.57 849.98L975.78 849.98L943.92 818.5Z" style="fill: rgb(237, 237, 238); mix-blend-mode: multiply;"/>
        <path id="&lt;Path&gt;" class="shp2" d="M837.66 820.3C836.57 820.91 835.48 821.58 834.39 822.24L862.51 849.98L867.71 849.98L837.66 820.3Z" style="fill: rgb(237, 237, 238); mix-blend-mode: multiply;"/>
        <path id="&lt;Path&gt;" class="shp2" d="M878.08 806.9C876.61 807.09 875.1 807.33 873.58 807.57L916.56 849.98L921.72 849.98L878.08 806.9Z" style="fill: rgb(237, 237, 238); mix-blend-mode: multiply;"/>
        <path id="&lt;Path&gt;" class="shp2" d="M809.45 774.14C808.21 774.67 807.03 775.14 805.8 775.71L880.83 849.98L886.03 849.98L809.45 774.14Z" style="fill: rgb(237, 237, 238); mix-blend-mode: multiply;"/>
        <path id="&lt;Path&gt;" class="shp2" d="M863.12 809.88C861.75 810.26 860.42 810.64 859.09 811.02L898.58 849.98L903.73 849.98L863.12 809.88Z" style="fill: rgb(237, 237, 238); mix-blend-mode: multiply;"/>
        <path id="&lt;Path&gt;" class="shp3" d="M981.31 849.98C983.12 845.01 985.1 840.13 987.28 835.4C988.51 832.7 989.79 830.05 991.11 827.45C992.25 825.27 993.39 823.14 994.57 821.01C996.46 817.65 998.45 814.34 1000.58 811.07L1000.58 811.02C1003.14 807.04 1005.83 803.12 1008.67 799.33C1010.47 796.91 1012.27 794.59 1014.21 792.27C1029.31 773.77 1047.77 758 1068.65 745.84C1069.31 745.46 1070.02 745.04 1070.73 744.66C1080 739.4 1089.8 734.81 1099.98 731.07L1099.98 849.98L981.31 849.98Z" style="fill: rgb(219, 220, 221); mix-blend-mode: multiply;"/>
        <path id="&lt;Path&gt;" class="shp1" d="M1054.02 681.51C1054.02 659.38 1035.84 641.46 1013.45 641.46C991.04 641.46 972.87 659.38 972.87 681.51C972.87 703.63 991.04 721.55 1013.45 721.55C1035.84 721.55 1054.02 703.63 1054.02 681.51Z" style="fill: rgb(208, 210, 211); mix-blend-mode: multiply;"/>
        <path id="&lt;Path&gt;" class="shp1" d="M1099.98 704.05L1099.98 707.31L1046.87 654.86L1040.06 648.14L948.94 558.21C948.47 557.78 948.47 557.02 948.94 556.6C949.17 556.36 949.46 556.27 949.79 556.27C950.07 556.27 950.36 556.36 950.59 556.6L1041.95 646.77L1048.81 653.54L1099.98 704.05Z" style="fill: rgb(208, 210, 211); mix-blend-mode: multiply;"/>
        <path id="&lt;Path&gt;" class="shp1" d="M980.79 849.98L977.53 849.98L808.83 683.45C808.36 683.03 808.36 682.32 808.83 681.84C809.07 681.61 809.39 681.52 809.68 681.52C809.97 681.52 810.29 681.61 810.48 681.84L950.74 820.25L950.74 820.3L961.06 830.48L980.79 849.98Z" style="fill: rgb(208, 210, 211); mix-blend-mode: multiply;"/>
        <path id="&lt;Path&gt;" class="shp1" d="M1099.98 773.58L1099.98 776.75L1068.65 745.84L1036.7 714.32L1017.1 694.96C1016.62 694.48 1016.62 693.78 1017.1 693.35C1017.29 693.11 1017.62 693.02 1017.91 693.02C1018.19 693.02 1018.52 693.11 1018.76 693.35L1038.59 712.95L1070.73 744.66L1099.98 773.58Z" style="fill: rgb(208, 210, 211); mix-blend-mode: multiply;"/>
        <path id="&lt;Compound Path&gt;" fill-rule="evenodd" class="shp1" d="M1015.44 801.41C1015.44 810.12 1012.18 818.12 1006.73 824.18C1004.65 826.64 1002.14 828.77 999.4 830.48C995.75 832.84 991.68 834.55 987.28 835.4C985.01 835.87 982.64 836.1 980.23 836.1C973.17 836.1 966.55 834.03 961.06 830.48C956.93 827.87 953.44 824.37 950.74 820.3L950.74 820.25C947.14 814.8 945.05 808.37 945.05 801.41C945.05 782.24 960.82 766.72 980.23 766.72C980.7 766.72 981.22 766.72 981.69 766.81C985.01 766.86 988.22 767.47 991.2 768.46C1002.38 772.07 1011.09 781.01 1014.21 792.27C1015.02 795.21 1015.44 798.24 1015.44 801.41ZM1008.77 801.41C1008.77 800.7 1008.72 800.04 1008.67 799.33C1007.92 788.73 1001.15 779.78 991.73 775.66C988.75 774.38 985.48 773.58 982.07 773.39C981.46 773.3 980.84 773.3 980.23 773.3C964.51 773.3 951.73 785.88 951.73 801.41C951.73 816.94 964.51 829.53 980.23 829.53C984.11 829.53 987.75 828.77 991.11 827.45C992.96 826.69 994.71 825.74 996.32 824.65C999.11 822.76 1001.53 820.39 1003.46 817.7C1006.78 813.11 1008.77 807.47 1008.77 801.41Z" style="fill: rgb(208, 210, 211); mix-blend-mode: multiply;"/>
        <path id="&lt;Compound Path&gt;" fill-rule="evenodd" class="shp1" d="M1087.68 573.97C1087.68 585.19 1078.45 594.28 1067.08 594.28C1055.73 594.28 1046.54 585.19 1046.54 573.97C1046.54 562.8 1055.73 553.71 1067.08 553.71C1078.45 553.71 1087.68 562.8 1087.68 573.97ZM1083.75 573.97C1083.75 564.93 1076.27 557.55 1067.08 557.55C1057.9 557.55 1050.42 564.93 1050.42 573.97C1050.42 583.06 1057.9 590.45 1067.08 590.45C1076.27 590.45 1083.75 583.06 1083.75 573.97Z" style="fill: rgb(208, 210, 211); mix-blend-mode: multiply;"/>
        <path id="&lt;Compound Path&gt;" fill-rule="evenodd" class="shp1" d="M1038.4 459.8C1038.4 466.14 1033.19 471.3 1026.75 471.3C1020.32 471.3 1015.11 466.14 1015.11 459.8C1015.11 453.46 1020.32 448.3 1026.75 448.3C1033.19 448.3 1038.4 453.46 1038.4 459.8ZM1036.17 459.8C1036.17 454.64 1031.96 450.48 1026.75 450.48C1021.55 450.48 1017.29 454.64 1017.29 459.8C1017.29 464.96 1021.55 469.13 1026.75 469.13C1031.96 469.13 1036.17 464.96 1036.17 459.8Z" style="fill: rgb(208, 210, 211); mix-blend-mode: multiply;"/>
        <path id="&lt;Compound Path&gt;" fill-rule="evenodd" class="shp1" d="M726.94 812.63C726.94 818.98 721.73 824.13 715.3 824.13C708.86 824.13 703.65 818.98 703.65 812.63C703.65 806.29 708.86 801.13 715.3 801.13C721.73 801.13 726.94 806.29 726.94 812.63ZM724.76 812.63C724.76 807.47 720.5 803.3 715.3 803.3C710.09 803.3 705.88 807.47 705.88 812.63C705.88 817.79 710.09 821.96 715.3 821.96C720.5 821.96 724.76 817.79 724.76 812.63Z" style="fill: rgb(208, 210, 211); mix-blend-mode: multiply;"/>
        <path id="&lt;Path&gt;" class="shp1" d="M1041.95 646.77C1041.29 647.2 1040.67 647.67 1040.06 648.14C1039.34 648.62 1038.68 649.14 1038.02 649.66C1016.3 665.99 999.49 688.38 990.02 714.17C984.53 729.18 981.55 745.32 981.55 762.18C981.55 763.73 981.6 765.29 981.69 766.81C981.69 769.04 981.84 771.21 982.07 773.39C983.35 790.24 987.7 806.33 994.57 821.01C995.09 822.24 995.7 823.47 996.32 824.65C997.27 826.64 998.31 828.58 999.4 830.48C1003.23 837.34 1007.63 843.87 1012.6 849.98L1024.96 849.98C1017.86 842.17 1011.75 833.5 1006.73 824.18C1005.55 822.05 1004.46 819.92 1003.46 817.7C1002.38 815.52 1001.43 813.34 1000.58 811.07L1000.58 811.02C995.98 799.9 993.01 788.07 991.73 775.66C991.45 773.3 991.3 770.88 991.2 768.46C991.07 766.39 991.02 764.25 991.02 762.18C991.02 746.93 993.62 732.3 998.5 718.72C1007.35 693.59 1023.72 671.86 1044.93 656.23C1045.59 655.77 1046.21 655.29 1046.87 654.86C1047.49 654.39 1048.15 653.92 1048.81 653.54C1063.91 643.13 1081.28 635.79 1099.98 632.33L1099.98 622.73C1078.63 626.37 1058.95 634.8 1041.95 646.77Z" style="fill: rgb(208, 210, 211); mix-blend-mode: multiply;"/>
      </g>
      <path id="&lt;Path&gt;" class="shp3" d="M-182.83 850L-400 850L-400 720.35C-390.91 719.12 -381.63 718.46 -372.17 718.46C-351.2 718.46 -331.03 721.63 -312 727.45L-311.96 727.45C-310.35 728.02 -308.69 728.54 -307.08 729.06C-299.98 731.48 -293.02 734.27 -286.3 737.44C-282.75 739.05 -279.3 740.8 -275.84 742.64C-265.81 748.09 -256.25 754.34 -247.3 761.34C-229.93 774.93 -214.88 791.35 -202.8 809.86C-202.8 809.91 -202.76 809.96 -202.71 810C-196.04 820.32 -190.31 831.26 -185.62 842.76L-185.58 842.8C-184.58 845.17 -183.68 847.54 -182.83 850Z" style="fill: rgb(219, 220, 221); mix-blend-mode: multiply;"/>
      <path id="&lt;Path&gt;" class="shp1" d="M-357.59 789.89C-358.06 790.36 -358.82 790.36 -359.25 789.89L-400 749.65L-400 746.43L-357.59 788.28C-357.16 788.7 -357.16 789.41 -357.59 789.89Z" style="fill: rgb(208, 210, 211); mix-blend-mode: multiply;"/>
      <path id="&lt;Path&gt;" class="shp1" d="M-184.58 850L-187.85 850L-274.47 764.51L-274.47 764.47L-284.13 755L-284.13 754.95L-311.96 727.45L-312 727.45L-323.84 715.76C-324.31 715.34 -324.31 714.58 -323.84 714.15C-323.6 713.91 -323.32 713.82 -322.99 713.82C-322.75 713.82 -322.42 713.91 -322.18 714.15L-307.08 729.06L-284.36 751.45L-284.36 751.5L-274.47 761.25L-265.1 770.48L-184.58 850Z" style="fill: rgb(208, 210, 211); mix-blend-mode: multiply;"/>
      <path id="&lt;Compound Path&gt;" fill-rule="evenodd" class="shp1" d="M-29.14 785.39C-29.14 796.37 -38.22 805.32 -49.4 805.32C-60.57 805.32 -69.61 796.37 -69.61 785.39C-69.61 774.31 -60.57 765.37 -49.4 765.37C-38.22 765.37 -29.14 774.31 -29.14 785.39ZM-39.5 785.34C-39.5 779.95 -43.9 775.59 -49.4 775.59C-54.84 775.59 -59.29 779.95 -59.29 785.34C-59.29 790.74 -54.84 795.09 -49.4 795.09C-43.9 795.09 -39.5 790.74 -39.5 785.34Z" style="fill: rgb(208, 210, 211); mix-blend-mode: multiply;"/>
      <path id="&lt;Compound Path&gt;" class="shp1" d="M-212.51 845.41C-212.51 845.38 -212.51 845.36 -212.51 845.36C-214.12 837.55 -220.32 831.39 -228.23 829.83C-228.26 829.83 -228.27 829.83 -228.27 829.83C-229.55 829.55 -230.92 829.41 -232.29 829.41C-235.94 829.41 -239.39 830.36 -242.33 832.06C-243.7 832.82 -244.98 833.76 -246.12 834.85C-249.05 837.55 -251.13 841.1 -252.03 845.13C-252.37 846.5 -252.51 847.96 -252.51 849.43C-252.51 849.62 -252.51 849.81 -252.46 850L-242.14 850C-242.19 849.81 -242.19 849.57 -242.19 849.39C-242.19 846.45 -240.86 843.85 -238.83 842.05C-237.6 841 -236.08 840.2 -234.43 839.87C-233.76 839.73 -233.05 839.63 -232.29 839.63C-226.85 839.63 -222.4 843.99 -222.4 849.39C-222.4 849.57 -222.4 849.81 -222.45 850L-212.13 850C-212.08 849.81 -212.08 849.62 -212.08 849.43C-212.08 848.06 -212.23 846.69 -212.51 845.41Z" style="fill: rgb(208, 210, 211); mix-blend-mode: multiply;"/>
      <path id="&lt;Path&gt;" class="shp1" d="M-363.37 570.29C-364.75 570.29 -366.1 570.8 -367.14 571.85C-369.23 573.88 -369.23 577.22 -367.14 579.27L-243.69 701.11C-241.62 703.16 -238.24 703.16 -236.18 701.11C-234.1 699.06 -234.1 695.75 -236.18 693.67L-359.62 571.85C-360.67 570.8 -362.02 570.29 -363.37 570.29Z" style="fill: rgb(208, 210, 211); mix-blend-mode: multiply;"/>
      <g id="&lt;Group&gt;">
        <path id="&lt;Path&gt;" class="shp2" d="M-234.43 839.87L-242.33 832.06L-278.63 796.18L-286.54 788.37L-287.49 787.47C-288.58 788.46 -289.71 789.46 -290.8 790.55C-290.8 790.6 -290.85 790.64 -290.89 790.64L-287.77 793.72L-280.05 801.34L-246.12 834.85L-238.83 842.05L-230.73 850L-224.16 850L-234.43 839.87Z" style="fill: rgb(237, 237, 238); mix-blend-mode: multiply;"/>
        <path id="&lt;Path&gt;" class="shp2" d="M-291.37 828.89L-298.42 821.93L-308.55 811.95C-309.45 813.27 -310.26 814.59 -311.11 815.96L-300.69 826.24L-293.73 833.1L-276.65 850L-269.97 850L-291.37 828.89Z" style="fill: rgb(237, 237, 238); mix-blend-mode: multiply;"/>
        <path id="&lt;Path&gt;" class="shp2" d="M-252.03 845.13L-284.13 813.41C-284.74 814.97 -285.41 816.54 -286.07 818.1L-253.74 850L-247.06 850L-252.03 845.13Z" style="fill: rgb(237, 237, 238); mix-blend-mode: multiply;"/>
        <path id="&lt;Path&gt;" class="shp2" d="M-300.08 842.95L-306.89 836.18L-316.93 826.29C-317.69 827.71 -318.44 829.17 -319.1 830.69L-309.64 840.01L-302.87 846.73L-299.56 850L-292.93 850L-300.08 842.95Z" style="fill: rgb(237, 237, 238); mix-blend-mode: multiply;"/>
        <path id="&lt;Path&gt;" class="shp2" d="M-316.88 848.96L-323.84 842.1C-324.41 843.7 -324.93 845.36 -325.45 847.02L-322.42 850L-315.84 850L-316.88 848.96Z" style="fill: rgb(237, 237, 238); mix-blend-mode: multiply;"/>
        <path id="&lt;Path&gt;" class="shp2" d="M-275.04 777.15C-275.13 777.2 -275.18 777.25 -275.27 777.34C-276.46 778.2 -277.64 779.09 -278.78 779.99L-275.94 782.79L-228.27 829.83C-228.27 829.83 -228.26 829.83 -228.23 829.83L-212.51 845.36C-212.51 845.36 -212.51 845.38 -212.51 845.41L-207.82 850L-201.2 850L-275.04 777.15Z" style="fill: rgb(237, 237, 238); mix-blend-mode: multiply;"/>
        <path id="&lt;Path&gt;" class="shp2" d="M-187.89 750.03C-190.12 749.98 -192.34 749.98 -194.57 750.03L-93.27 850L-86.65 850L-187.89 750.03Z" style="fill: rgb(237, 237, 238); mix-blend-mode: multiply;"/>
        <path id="&lt;Path&gt;" class="shp2" d="M-161.91 753.06C-164.61 752.49 -167.3 752.02 -170.05 751.59L-70.32 850L-63.69 850L-161.91 753.06Z" style="fill: rgb(237, 237, 238); mix-blend-mode: multiply;"/>
        <path id="&lt;Path&gt;" class="shp2" d="M-67.34 823.82L-125.98 765.93C-130.05 763.8 -134.17 761.91 -138.38 760.2L-61.51 836.08C-63.26 831.92 -65.16 827.84 -67.34 823.82Z" style="fill: rgb(237, 237, 238); mix-blend-mode: multiply;"/>
        <path id="&lt;Path&gt;" class="shp2" d="M-209.72 751.17C-211.61 751.35 -213.55 751.69 -215.44 752.02L-116.47 850L-109.89 850L-209.72 751.17Z" style="fill: rgb(237, 237, 238); mix-blend-mode: multiply;"/>
        <path id="&lt;Path&gt;" class="shp2" d="M-245.83 760.77C-246.31 760.96 -246.83 761.15 -247.3 761.34C-248.34 761.77 -249.38 762.24 -250.42 762.71L-202.8 809.86C-202.8 809.91 -202.76 809.96 -202.71 810L-162.34 850L-155.76 850L-245.83 760.77Z" style="fill: rgb(237, 237, 238); mix-blend-mode: multiply;"/>
        <path id="&lt;Path&gt;" class="shp2" d="M-228.79 754.9C-230.5 755.43 -232.2 755.9 -233.9 756.42L-139.09 850L-132.47 850L-228.79 754.9Z" style="fill: rgb(237, 237, 238); mix-blend-mode: multiply;"/>
        <path id="&lt;Path&gt;" class="shp2" d="M-185.58 842.8L-185.62 842.76L-261.17 768.21C-262.49 768.96 -263.82 769.72 -265.1 770.48C-265.19 770.53 -265.24 770.57 -265.33 770.62L-184.91 850L-178.33 850L-185.58 842.8Z" style="fill: rgb(237, 237, 238); mix-blend-mode: multiply;"/>
      </g>
      <path id="&lt;Path&gt;" class="shp1" d="M-274.47 761.25C-274.47 754.95 -274.94 748.7 -275.84 742.64C-284.65 679.5 -335.81 629.52 -400 621.66L-400 631.17C-342.82 638.7 -296.95 682.01 -286.3 737.44C-285.35 742.03 -284.74 746.71 -284.36 751.45L-284.36 751.5C-284.22 752.63 -284.17 753.82 -284.13 754.95L-284.13 755C-283.94 757.41 -283.89 759.78 -283.89 762.2C-283.89 771.14 -284.79 779.9 -286.54 788.37C-286.92 790.17 -287.3 791.96 -287.77 793.72C-288.81 797.93 -290.04 802.1 -291.51 806.12C-292.08 807.73 -292.69 809.34 -293.36 810.9C-294.87 814.69 -296.53 818.38 -298.42 821.93C-299.13 823.4 -299.89 824.82 -300.69 826.24C-302.63 829.65 -304.71 832.96 -306.89 836.18C-307.79 837.5 -308.69 838.78 -309.64 840.01C-311.91 843.09 -314.33 846.07 -316.88 848.96C-317.17 849.29 -317.5 849.67 -317.83 850L-305.47 850C-304.53 848.91 -303.67 847.82 -302.87 846.73C-301.88 845.5 -300.98 844.22 -300.08 842.95C-297.81 839.78 -295.72 836.46 -293.73 833.1C-292.88 831.73 -292.13 830.31 -291.37 828.89C-289.43 825.39 -287.68 821.79 -286.07 818.1C-285.41 816.54 -284.74 814.97 -284.13 813.41C-282.56 809.48 -281.19 805.46 -280.05 801.34C-279.49 799.63 -279.01 797.93 -278.63 796.18C-277.5 791.78 -276.6 787.33 -275.94 782.79C-275.65 780.99 -275.42 779.14 -275.27 777.34C-274.8 773.08 -274.52 768.87 -274.47 764.51L-274.47 764.47C-274.42 763.71 -274.42 762.95 -274.42 762.2C-274.42 761.86 -274.42 761.58 -274.47 761.25Z" style="fill: rgb(208, 210, 211); mix-blend-mode: multiply;"/>
      <g id="&lt;Group&gt;" style="mix-blend-mode: multiply">
        <path id="&lt;Path&gt;" class="shp4" d="M975.66 809.39C975.66 811.71 969.21 814.05 962.69 814.05L-365.69 814.05C-372.19 814.05 -378.63 811.71 -378.63 809.39L-378.63 -62.32C-378.63 -64.63 -372.19 -66.97 -365.69 -66.97L962.69 -62.32C969.21 -62.32 975.66 -59.98 975.66 -57.66L975.66 809.39Z" style="fill: rgb(255, 255, 255); opacity: 0;"/>
        <path id="&lt;Path&gt;" class="shp5" d="M-376.35 -61.95C-376.25 -64.21 -369.86 -66.49 -363.4 -66.49C-362.84 -66.49 -239.86 -66.06 -238.42 -66.06L832.19 -62.4C833.06 -62.4 961.33 -61.95 962.23 -61.95C968.7 -61.95 975.1 -59.67 975.2 -57.41C975.2 -56.8 975.2 0.7 975.2 1.1C975.2 1.98 975.2 797.48 975.2 808.29C975.2 810.55 968.59 812.83 962.23 812.83L-363.4 812.83C-369.75 812.83 -376.35 810.55 -376.35 808.29C-376.35 805.03 -376.35 38.01 -376.35 37.13C-376.35 35.8 -376.35 -61.54 -376.35 -61.95Z" style="fill: rgb(253, 253, 253); opacity: 0.024;"/>
        <path id="&lt;Path&gt;" class="shp6" d="M-374.07 -61.59C-373.87 -63.79 -367.53 -66.02 -361.11 -66.02C-360 -66.02 -239.26 -65.6 -236.39 -65.6L831.99 -62.02C833.74 -62.02 959.97 -61.59 961.77 -61.59C968.2 -61.59 974.54 -59.37 974.75 -57.17C974.75 -55.93 974.75 0.46 974.75 1.26C974.75 3.02 974.75 785.58 974.75 807.18C974.75 809.39 967.97 811.62 961.77 811.62L-361.11 811.62C-367.3 811.62 -374.07 809.39 -374.07 807.18C-374.07 800.67 -374.07 39.09 -374.07 37.32C-374.07 34.67 -374.07 -60.77 -374.07 -61.59Z" style="fill: rgb(251, 251, 251); opacity: 0.047;"/>
        <path id="&lt;Path&gt;" class="shp7" d="M-371.78 -61.23C-371.49 -63.37 -365.2 -65.54 -358.82 -65.54C-357.15 -65.54 -238.67 -65.13 -234.36 -65.13L831.8 -61.65C834.41 -61.65 958.61 -61.23 961.31 -61.23C967.69 -61.23 973.98 -59.06 974.29 -56.92C974.29 -55.06 974.29 0.22 974.29 1.42C974.29 4.07 974.29 773.67 974.29 806.08C974.29 808.22 967.35 810.4 961.31 810.4L-358.82 810.4C-364.85 810.4 -371.78 808.22 -371.78 806.08C-371.78 796.31 -371.78 40.17 -371.78 37.52C-371.78 33.54 -371.78 -59.99 -371.78 -61.23Z" style="fill: rgb(249, 249, 249); opacity: 0.075;"/>
        <path id="&lt;Path&gt;" class="shp8" d="M-369.5 -60.87C-369.1 -62.95 -362.87 -65.06 -356.53 -65.06C-354.31 -65.06 -238.07 -64.67 -232.33 -64.67L831.6 -61.28C835.09 -61.28 957.25 -60.87 960.85 -60.87C967.18 -60.87 973.42 -58.76 973.84 -56.67C973.84 -54.19 973.84 -0.02 973.84 1.58C973.84 5.11 973.84 761.76 973.84 804.97C973.84 807.06 966.73 809.18 960.85 809.18L-356.53 809.18C-362.4 809.18 -369.5 807.06 -369.5 804.97C-369.5 791.95 -369.5 41.25 -369.5 37.72C-369.5 32.41 -369.5 -59.22 -369.5 -60.87Z" style="fill: rgb(246, 247, 247); opacity: 0.098;"/>
        <path id="&lt;Path&gt;" class="shp9" d="M-367.21 -60.5C-366.72 -62.53 -360.54 -64.59 -354.24 -64.59C-351.47 -64.59 -237.47 -64.2 -230.3 -64.2L831.41 -60.9C835.77 -60.9 955.89 -60.5 960.39 -60.5C966.67 -60.5 972.87 -58.45 973.38 -56.42C973.38 -53.32 973.38 -0.26 973.38 1.74C973.38 6.15 973.38 749.86 973.38 803.87C973.38 805.9 966.12 807.96 960.38 807.96L-354.24 807.96C-359.95 807.96 -367.21 805.9 -367.21 803.87C-367.21 787.59 -367.21 42.33 -367.21 37.91C-367.21 31.28 -367.21 -58.44 -367.21 -60.5Z" style="fill: rgb(244, 245, 245); opacity: 0.122;"/>
        <path id="&lt;Path&gt;" class="shp10" d="M-364.93 -60.14C-364.34 -62.11 -358.21 -64.11 -351.95 -64.11C-348.62 -64.11 -236.88 -63.74 -228.27 -63.74L831.22 -60.53C836.45 -60.53 954.53 -60.14 959.93 -60.14C966.16 -60.14 972.31 -58.14 972.93 -56.17C972.93 -52.45 972.93 -0.5 972.93 1.9C972.93 7.19 972.93 737.95 972.93 802.77C972.93 804.74 965.5 806.74 959.92 806.74L-351.95 806.74C-357.5 806.74 -364.93 804.74 -364.93 802.77C-364.93 783.23 -364.93 43.41 -364.93 38.11C-364.93 30.15 -364.93 -57.67 -364.93 -60.14Z" style="fill: rgb(242, 242, 243); opacity: 0.145;"/>
        <path id="&lt;Path&gt;" class="shp11" d="M-362.65 -59.78C-361.96 -61.7 -355.87 -63.63 -349.66 -63.63C-345.78 -63.63 -236.28 -63.27 -226.23 -63.27L831.02 -60.16C837.13 -60.15 953.17 -59.78 959.47 -59.78C965.66 -59.78 971.75 -57.84 972.47 -55.92C972.47 -51.58 972.47 -0.74 972.47 2.05C972.47 8.23 972.47 726.04 972.47 801.66C972.47 803.58 964.88 805.53 959.46 805.53L-349.66 805.53C-355.05 805.53 -362.65 803.58 -362.65 801.66C-362.65 778.87 -362.65 44.49 -362.65 38.31C-362.65 29.03 -362.65 -56.89 -362.65 -59.78Z" style="fill: rgb(240, 240, 241); opacity: 0.173;"/>
        <path id="&lt;Path&gt;" class="shp12" d="M-360.36 -59.41C-359.58 -61.28 -353.54 -63.16 -347.37 -63.16C-342.93 -63.16 -235.68 -62.8 -224.2 -62.8L830.83 -59.78C837.8 -59.78 951.81 -59.41 959.01 -59.41C965.15 -59.41 971.19 -57.53 972.02 -55.67C972.02 -50.72 972.02 -0.97 972.02 2.21C972.02 9.28 972.02 714.13 972.02 800.56C972.02 802.42 964.26 804.31 959 804.31L-347.37 804.31C-352.61 804.31 -360.36 802.42 -360.36 800.56C-360.36 774.51 -360.36 45.57 -360.36 38.5C-360.36 27.9 -360.36 -56.12 -360.36 -59.41Z" style="fill: rgb(238, 238, 239); opacity: 0.196;"/>
        <path id="&lt;Path&gt;" class="shp13" d="M-358.08 -59.05C-357.19 -60.86 -351.21 -62.68 -345.08 -62.68C-340.09 -62.68 -235.09 -62.34 -222.17 -62.34L830.63 -59.41C838.48 -59.41 950.45 -59.05 958.55 -59.05C964.64 -59.05 970.64 -57.23 971.56 -55.42C971.56 -49.85 971.56 -1.21 971.56 2.37C971.56 10.32 971.56 702.23 971.56 799.45C971.56 801.26 963.64 803.09 958.54 803.09L-345.08 803.09C-350.16 803.09 -358.08 801.26 -358.08 799.45C-358.08 770.15 -358.08 46.65 -358.08 38.7C-358.08 26.77 -358.08 -55.35 -358.08 -59.05Z" style="fill: rgb(236, 236, 237); opacity: 0.22;"/>
        <path id="&lt;Path&gt;" class="shp14" d="M-355.79 -58.69C-354.81 -60.44 -348.88 -62.21 -342.79 -62.21C-337.25 -62.21 -234.49 -61.87 -220.14 -61.87L830.44 -59.03C839.16 -59.03 949.09 -58.69 958.09 -58.69C964.13 -58.69 970.08 -56.92 971.11 -55.17C971.11 -48.98 971.11 -1.45 971.11 2.53C971.11 11.36 971.11 690.32 971.11 798.35C971.11 800.1 963.02 801.87 958.08 801.87L-342.79 801.87C-347.71 801.87 -355.79 800.1 -355.79 798.35C-355.79 765.79 -355.79 47.73 -355.79 38.9C-355.79 25.64 -355.79 -54.57 -355.79 -58.69Z" style="fill: rgb(234, 234, 235); opacity: 0.243;"/>
        <path id="&lt;Path&gt;" class="shp15" d="M-353.51 -58.33C-352.43 -60.02 -346.55 -61.73 -340.5 -61.73C-334.4 -61.73 -233.89 -61.41 -218.11 -61.41L830.25 -58.66C839.84 -58.66 947.73 -58.33 957.63 -58.33C963.62 -58.33 969.52 -56.61 970.65 -54.92C970.65 -48.11 970.65 -1.69 970.65 2.69C970.65 12.4 970.65 678.41 970.65 797.24C970.65 798.94 962.4 800.65 957.62 800.65L-340.5 800.65C-345.26 800.65 -353.51 798.94 -353.51 797.24C-353.51 761.43 -353.51 48.81 -353.51 39.1C-353.51 24.51 -353.51 -53.8 -353.51 -58.33Z" style="fill: rgb(231, 232, 233); opacity: 0.267;"/>
        <path id="&lt;Path&gt;" class="shp16" d="M-351.22 -57.96C-350.05 -59.6 -344.22 -61.25 -338.21 -61.25C-331.56 -61.25 -233.3 -60.94 -216.08 -60.94L830.05 -58.29C840.52 -58.28 946.37 -57.96 957.17 -57.96C963.12 -57.96 968.96 -56.31 970.2 -54.67C970.2 -47.24 970.2 -1.93 970.2 2.85C970.2 13.45 970.2 666.51 970.2 796.14C970.2 797.78 961.78 799.44 957.16 799.44L-338.21 799.44C-342.81 799.44 -351.22 797.78 -351.22 796.14C-351.22 757.07 -351.22 49.89 -351.22 39.29C-351.22 23.38 -351.22 -53.02 -351.22 -57.96Z" style="fill: rgb(229, 230, 231); opacity: 0.294;"/>
        <path id="&lt;Path&gt;" class="shp17" d="M-348.94 -57.6C-347.66 -59.18 -341.89 -60.78 -335.92 -60.78C-328.72 -60.78 -232.7 -60.48 -214.04 -60.48L829.86 -57.91C841.19 -57.91 945.01 -57.6 956.71 -57.6C962.61 -57.6 968.4 -56 969.74 -54.42C969.74 -46.37 969.74 -2.17 969.74 3.01C969.74 14.49 969.74 654.6 969.74 795.04C969.74 796.62 961.16 798.22 956.7 798.22L-335.92 798.22C-340.36 798.22 -348.94 796.62 -348.94 795.04C-348.94 752.71 -348.94 50.97 -348.94 39.49C-348.94 22.25 -348.94 -52.25 -348.94 -57.6Z" style="fill: rgb(227, 228, 229); opacity: 0.318;"/>
        <path id="&lt;Path&gt;" class="shp18" d="M-346.66 -57.24C-345.28 -58.76 -339.56 -60.3 -333.63 -60.3C-325.87 -60.3 -232.11 -60.01 -212.01 -60.01L829.66 -57.54C841.87 -57.54 943.65 -57.24 956.25 -57.24C962.1 -57.24 967.85 -55.7 969.29 -54.17C969.29 -45.5 969.29 -2.41 969.29 3.17C969.29 15.53 969.29 642.69 969.29 793.93C969.29 795.46 960.54 797 956.24 797L-333.63 797C-337.91 797 -346.66 795.46 -346.66 793.93C-346.66 748.35 -346.66 52.05 -346.66 39.69C-346.66 21.12 -346.66 -51.47 -346.66 -57.24Z" style="fill: rgb(225, 226, 227); opacity: 0.341;"/>
        <path id="&lt;Path&gt;" class="shp19" d="M-344.37 -56.87C-342.9 -58.34 -337.22 -59.82 -331.34 -59.82C-323.03 -59.82 -231.51 -59.55 -209.98 -59.55L829.47 -57.16C842.55 -57.16 942.29 -56.87 955.79 -56.87C961.59 -56.87 967.29 -55.39 968.83 -53.92C968.83 -44.64 968.83 -2.65 968.83 3.33C968.83 16.57 968.83 630.79 968.83 792.83C968.83 794.3 959.92 795.78 955.78 795.78L-331.34 795.78C-335.47 795.78 -344.37 794.3 -344.37 792.83C-344.37 743.99 -344.37 53.13 -344.37 39.88C-344.37 19.99 -344.37 -50.7 -344.37 -56.87Z" style="fill: rgb(223, 224, 225); opacity: 0.365;"/>
        <path id="&lt;Path&gt;" class="shp20" d="M-342.09 -56.51C-340.52 -57.92 -334.89 -59.35 -329.05 -59.35C-320.18 -59.35 -230.91 -59.08 -207.95 -59.08L829.28 -56.79C843.23 -56.79 940.93 -56.51 955.33 -56.51C961.08 -56.51 966.73 -55.09 968.38 -53.67C968.38 -43.77 968.38 -2.89 968.38 3.49C968.38 17.61 968.38 618.88 968.38 791.72C968.38 793.14 959.3 794.56 955.32 794.56L-329.05 794.56C-333.02 794.56 -342.09 793.14 -342.09 791.72C-342.09 739.63 -342.09 54.2 -342.09 40.08C-342.09 18.86 -342.09 -49.92 -342.09 -56.51Z" style="fill: rgb(221, 222, 223); opacity: 0.392;"/>
        <path id="&lt;Path&gt;" class="shp21" d="M-339.8 -56.15C-338.13 -57.5 -332.56 -58.87 -326.76 -58.87C-317.34 -58.87 -230.32 -58.61 -205.92 -58.61L829.08 -56.42C843.91 -56.42 939.57 -56.15 954.87 -56.15C960.58 -56.15 966.17 -54.78 967.92 -53.43C967.92 -42.9 967.92 -3.13 967.92 3.65C967.92 18.66 967.92 606.97 967.92 790.62C967.92 791.97 958.68 793.35 954.86 793.35L-326.76 793.35C-330.57 793.35 -339.8 791.97 -339.8 790.62C-339.8 735.27 -339.8 55.28 -339.8 40.28C-339.8 17.73 -339.8 -49.15 -339.8 -56.15Z" style="fill: rgb(219, 219, 220); opacity: 0.416;"/>
        <path id="&lt;Path&gt;" class="shp22" d="M-337.52 -55.79C-335.75 -57.08 -330.23 -58.4 -324.47 -58.4C-314.5 -58.4 -229.72 -58.15 -203.89 -58.15L828.89 -56.04C844.58 -56.04 938.21 -55.79 954.41 -55.79C960.07 -55.79 965.62 -54.47 967.47 -53.18C967.47 -42.03 967.47 -3.37 967.47 3.81C967.47 19.7 967.47 595.07 967.47 789.51C967.47 790.81 958.06 792.13 954.4 792.13L-324.47 792.13C-328.12 792.13 -337.52 790.81 -337.52 789.51C-337.52 730.91 -337.52 56.36 -337.52 40.47C-337.52 16.6 -337.52 -48.37 -337.52 -55.79Z" style="fill: rgb(216, 217, 218); opacity: 0.439;"/>
        <path id="&lt;Path&gt;" class="shp23" d="M-335.23 -55.42C-333.37 -56.66 -327.9 -57.92 -322.18 -57.92C-311.65 -57.92 -229.12 -57.68 -201.86 -57.68L828.69 -55.67C845.26 -55.67 936.85 -55.42 953.95 -55.42C959.56 -55.42 965.06 -54.17 967.01 -52.93C967.01 -41.16 967.01 -3.61 967.01 3.97C967.01 20.74 967.01 583.16 967.01 788.41C967.01 789.65 957.44 790.91 953.94 790.91L-322.18 790.91C-325.67 790.91 -335.23 789.65 -335.23 788.41C-335.23 726.55 -335.23 57.44 -335.23 40.67C-335.23 15.47 -335.23 -47.6 -335.23 -55.42Z" style="fill: rgb(214, 215, 216); opacity: 0.463;"/>
        <path id="&lt;Path&gt;" class="shp24" d="M-332.95 -55.06C-330.99 -56.25 -325.57 -57.44 -319.89 -57.44C-308.81 -57.44 -228.53 -57.22 -199.82 -57.22L828.5 -55.29C845.94 -55.29 935.49 -55.06 953.49 -55.06C959.05 -55.06 964.5 -53.86 966.56 -52.68C966.56 -40.29 966.56 -3.84 966.56 4.12C966.56 21.78 966.56 571.25 966.56 787.31C966.56 788.49 956.82 789.69 953.48 789.69L-319.89 789.69C-323.22 789.69 -332.95 788.49 -332.95 787.31C-332.95 722.19 -332.95 58.52 -332.95 40.87C-332.95 14.34 -332.95 -46.83 -332.95 -55.06Z" style="fill: rgb(212, 213, 214); opacity: 0.486;"/>
        <path id="&lt;Path&gt;" class="shp25" d="M-330.67 -54.7C-328.6 -55.83 -323.24 -56.97 -317.6 -56.97C-305.96 -56.97 -227.93 -56.75 -197.79 -56.75L828.3 -54.92C846.62 -54.92 934.13 -54.7 953.03 -54.7C958.54 -54.7 963.94 -53.56 966.1 -52.43C966.1 -39.42 966.1 -4.08 966.1 4.28C966.1 22.82 966.1 559.34 966.1 786.2C966.1 787.33 956.2 788.47 953.02 788.47L-317.6 788.47C-320.77 788.47 -330.67 787.33 -330.67 786.2C-330.67 717.83 -330.67 59.6 -330.67 41.06C-330.67 13.21 -330.67 -46.05 -330.67 -54.7Z" style="fill: rgb(210, 211, 212); opacity: 0.514;"/>
        <path id="&lt;Path&gt;" class="shp26" d="M-328.38 -54.33C-326.22 -55.41 -320.91 -56.49 -315.31 -56.49C-303.12 -56.49 -227.33 -56.29 -195.76 -56.29L828.11 -54.55C847.3 -54.55 932.77 -54.33 952.57 -54.33C958.04 -54.33 963.39 -53.25 965.65 -52.18C965.65 -38.56 965.65 -4.32 965.65 4.44C965.65 23.87 965.65 547.44 965.65 785.1C965.65 786.17 955.58 787.26 952.56 787.26L-315.31 787.26C-318.33 787.26 -328.38 786.17 -328.38 785.1C-328.38 713.47 -328.38 60.68 -328.38 41.26C-328.38 12.08 -328.38 -45.28 -328.38 -54.33Z" style="fill: rgb(208, 209, 210); opacity: 0.537;"/>
        <path id="&lt;Path&gt;" class="shp27" d="M-326.1 -53.97C-323.84 -54.99 -318.57 -56.01 -313.02 -56.01C-300.28 -56.01 -226.74 -55.82 -193.73 -55.82L827.92 -54.17C847.97 -54.17 931.41 -53.97 952.11 -53.97C957.53 -53.97 962.83 -52.95 965.19 -51.93C965.19 -37.69 965.19 -4.56 965.19 4.6C965.19 24.91 965.19 535.53 965.19 783.99C965.19 785.01 954.96 786.04 952.1 786.04L-313.02 786.04C-315.88 786.04 -326.1 785.01 -326.1 783.99C-326.1 709.11 -326.1 61.76 -326.1 41.46C-326.1 10.95 -326.1 -44.5 -326.1 -53.97Z" style="fill: rgb(206, 207, 208); opacity: 0.561;"/>
        <path id="&lt;Path&gt;" class="shp28" d="M-323.81 -53.61C-321.46 -54.57 -316.24 -55.54 -310.73 -55.54C-297.43 -55.54 -226.14 -55.36 -191.7 -55.36L827.72 -53.8C848.65 -53.8 930.05 -53.61 951.65 -53.61C957.02 -53.61 962.27 -52.64 964.74 -51.68C964.74 -36.82 964.74 -4.8 964.74 4.76C964.74 25.95 964.74 523.62 964.74 782.89C964.74 783.85 954.35 784.82 951.64 784.82L-310.73 784.82C-313.43 784.82 -323.81 783.85 -323.81 782.89C-323.81 704.75 -323.81 62.84 -323.81 41.65C-323.81 9.82 -323.81 -43.73 -323.81 -53.61Z" style="fill: rgb(204, 205, 206); opacity: 0.584;"/>
        <path id="&lt;Path&gt;" class="shp29" d="M-321.53 -53.25C-319.07 -54.15 -313.91 -55.06 -308.44 -55.06C-294.59 -55.06 -225.55 -54.89 -189.67 -54.89L827.53 -53.42C849.33 -53.42 928.69 -53.25 951.19 -53.25C956.51 -53.25 961.71 -52.33 964.28 -51.43C964.28 -35.95 964.28 -5.04 964.28 4.92C964.28 26.99 964.28 511.72 964.28 781.78C964.28 782.69 953.73 783.6 951.18 783.6L-308.44 783.6C-310.98 783.6 -321.53 782.69 -321.53 781.78C-321.53 700.38 -321.53 63.92 -321.53 41.85C-321.53 8.7 -321.53 -42.95 -321.53 -53.25Z" style="fill: rgb(201, 203, 204); opacity: 0.608;"/>
        <path id="&lt;Path&gt;" class="shp30" d="M-319.24 -52.88C-316.69 -53.73 -311.58 -54.59 -306.15 -54.59C-291.75 -54.59 -224.95 -54.42 -187.64 -54.42L827.33 -53.05C850.01 -53.05 927.33 -52.88 950.73 -52.88C956 -52.88 961.15 -52.03 963.83 -51.18C963.83 -35.08 963.83 -5.28 963.83 5.08C963.83 28.04 963.83 499.81 963.83 780.68C963.83 781.53 953.11 782.39 950.72 782.39L-306.15 782.39C-308.53 782.39 -319.24 781.53 -319.24 780.68C-319.24 696.02 -319.24 65 -319.24 42.05C-319.24 7.57 -319.24 -42.18 -319.24 -52.88Z" style="fill: rgb(199, 201, 202); opacity: 0.635;"/>
        <path id="&lt;Path&gt;" class="shp31" d="M-316.96 -52.52C-314.31 -53.31 -309.25 -54.11 -303.86 -54.11C-288.9 -54.11 -224.35 -53.96 -185.6 -53.96L827.14 -52.68C850.69 -52.68 925.97 -52.52 950.27 -52.52C955.5 -52.52 960.6 -51.72 963.37 -50.93C963.37 -34.21 963.37 -5.52 963.37 5.24C963.37 29.08 963.37 487.9 963.37 779.58C963.37 780.37 952.49 781.17 950.26 781.17L-303.86 781.17C-306.08 781.17 -316.96 780.37 -316.96 779.58C-316.96 691.66 -316.96 66.08 -316.96 42.24C-316.96 6.44 -316.96 -41.4 -316.96 -52.52Z" style="fill: rgb(197, 198, 200); opacity: 0.659;"/>
        <path id="&lt;Path&gt;" class="shp32" d="M-314.68 -52.16C-311.93 -52.89 -306.92 -53.63 -301.57 -53.63C-286.06 -53.63 -223.76 -53.49 -183.57 -53.49L826.95 -52.3C851.36 -52.3 924.61 -52.16 949.81 -52.16C954.99 -52.16 960.04 -51.42 962.92 -50.68C962.92 -33.34 962.92 -5.76 962.92 5.4C962.92 30.12 962.92 476 962.92 778.47C962.92 779.21 951.87 779.95 949.8 779.95L-301.57 779.95C-303.63 779.95 -314.68 779.21 -314.68 778.47C-314.68 687.3 -314.68 67.16 -314.68 42.44C-314.68 5.31 -314.68 -40.63 -314.68 -52.16Z" style="fill: rgb(195, 196, 198); opacity: 0.682;"/>
        <path id="&lt;Path&gt;" class="shp33" d="M-312.39 -51.8C-309.54 -52.47 -304.59 -53.16 -299.28 -53.16C-283.21 -53.16 -223.16 -53.03 -181.54 -53.03L826.75 -51.93C852.04 -51.93 923.25 -51.79 949.35 -51.8C954.48 -51.8 959.48 -51.11 962.46 -50.43C962.46 -32.48 962.46 -6 962.46 5.56C962.46 31.16 962.46 464.09 962.46 777.37C962.46 778.05 951.25 778.73 949.34 778.73L-299.28 778.73C-301.19 778.73 -312.39 778.05 -312.39 777.37C-312.39 682.94 -312.39 68.24 -312.39 42.64C-312.39 4.18 -312.39 -39.85 -312.39 -51.8Z" style="fill: rgb(193, 194, 196); opacity: 0.706;"/>
        <path id="&lt;Path&gt;" class="shp34" d="M-310.11 -51.43C-307.16 -52.05 -302.25 -52.68 -296.99 -52.68C-280.37 -52.68 -222.56 -52.56 -179.51 -52.56L826.56 -51.55C852.72 -51.55 921.89 -51.43 948.89 -51.43C953.97 -51.43 958.92 -50.81 962.01 -50.18C962.01 -31.61 962.01 -6.24 962.01 5.72C962.01 32.2 962.01 452.18 962.01 776.26C962.01 776.89 950.63 777.51 948.88 777.51L-296.99 777.51C-298.74 777.51 -310.11 776.89 -310.11 776.26C-310.11 678.58 -310.11 69.32 -310.11 42.83C-310.11 3.05 -310.11 -39.08 -310.11 -51.43Z" style="fill: rgb(191, 192, 194); opacity: 0.733;"/>
        <path id="&lt;Path&gt;" class="shp35" d="M-307.82 -51.07C-304.78 -51.63 -299.92 -52.2 -294.7 -52.2C-277.53 -52.2 -221.97 -52.1 -177.48 -52.1L826.36 -51.18C853.4 -51.18 920.53 -51.07 948.43 -51.07C953.46 -51.07 958.37 -50.5 961.55 -49.93C961.55 -30.74 961.55 -6.48 961.55 5.88C961.55 33.25 961.55 440.27 961.55 775.16C961.55 775.72 950.01 776.3 948.42 776.3L-294.7 776.3C-296.29 776.3 -307.82 775.72 -307.82 775.16C-307.82 674.22 -307.82 70.4 -307.82 43.03C-307.82 1.92 -307.82 -38.31 -307.82 -51.07Z" style="fill: rgb(189, 190, 192); opacity: 0.757;"/>
        <path id="&lt;Path&gt;" class="shp36" d="M-305.54 -50.71C-302.4 -51.21 -297.59 -51.73 -292.41 -51.73C-274.68 -51.73 -221.37 -51.63 -175.45 -51.63L826.17 -50.81C854.08 -50.81 919.17 -50.71 947.97 -50.71C952.96 -50.71 957.81 -50.19 961.1 -49.69C961.1 -29.87 961.1 -6.71 961.1 6.04C961.1 34.29 961.1 428.37 961.1 774.06C961.1 774.56 949.39 775.08 947.96 775.08L-292.41 775.08C-293.84 775.08 -305.54 774.56 -305.54 774.06C-305.54 669.86 -305.54 71.48 -305.54 43.23C-305.54 0.79 -305.54 -37.53 -305.54 -50.71Z" style="fill: rgb(186, 188, 190); opacity: 0.78;"/>
        <path id="&lt;Path&gt;" class="shp37" d="M-303.25 -50.34C-300.01 -50.8 -295.26 -51.25 -290.12 -51.25C-271.84 -51.25 -220.77 -51.17 -173.41 -51.17L825.98 -50.43C854.75 -50.43 917.81 -50.34 947.51 -50.34C952.45 -50.34 957.25 -49.89 960.64 -49.44C960.64 -29 960.64 -6.95 960.64 6.19C960.64 35.33 960.64 416.46 960.64 772.95C960.64 773.4 948.77 773.86 947.5 773.86L-290.12 773.86C-291.39 773.86 -303.25 773.4 -303.25 772.95C-303.25 665.5 -303.25 72.56 -303.25 43.42C-303.25 -0.34 -303.25 -36.76 -303.25 -50.34Z" style="fill: rgb(184, 186, 188); opacity: 0.804;"/>
        <path id="&lt;Path&gt;" class="shp38" d="M-300.97 -49.98C-297.63 -50.38 -292.93 -50.78 -287.83 -50.78C-268.99 -50.78 -220.18 -50.7 -171.38 -50.7L825.78 -50.06C855.43 -50.06 916.45 -49.98 947.05 -49.98C951.94 -49.98 956.69 -49.58 960.19 -49.19C960.19 -28.13 960.19 -7.19 960.19 6.35C960.19 36.37 960.19 404.55 960.19 771.85C960.19 772.24 948.15 772.64 947.04 772.64L-287.83 772.64C-288.94 772.64 -300.97 772.24 -300.97 771.85C-300.97 661.14 -300.97 73.64 -300.97 43.62C-300.97 -1.47 -300.97 -35.98 -300.97 -49.98Z" style="fill: rgb(182, 184, 186); opacity: 0.827;"/>
        <path id="&lt;Path&gt;" class="shp39" d="M-298.69 -49.62C-295.25 -49.96 -290.6 -50.3 -285.54 -50.3C-266.15 -50.3 -219.58 -50.23 -169.35 -50.23L825.59 -49.68C856.11 -49.68 915.09 -49.62 946.59 -49.62C951.43 -49.62 956.14 -49.28 959.73 -48.94C959.73 -27.26 959.73 -7.43 959.73 6.51C959.73 37.42 959.73 392.65 959.73 770.74C959.73 771.08 947.53 771.42 946.58 771.42L-285.54 771.42C-286.49 771.42 -298.69 771.08 -298.69 770.74C-298.69 656.78 -298.69 74.72 -298.69 43.82C-298.69 -2.6 -298.69 -35.21 -298.69 -49.62Z" style="fill: rgb(180, 182, 184); opacity: 0.855;"/>
        <path id="&lt;Path&gt;" class="shp40" d="M-296.4 -49.26C-292.87 -49.54 -288.27 -49.82 -283.25 -49.82C-263.31 -49.82 -218.99 -49.77 -167.32 -49.77L825.39 -49.31C856.79 -49.31 913.73 -49.25 946.13 -49.26C950.92 -49.26 955.58 -48.97 959.28 -48.69C959.28 -26.4 959.28 -7.67 959.28 6.67C959.28 38.46 959.28 380.74 959.28 769.64C959.28 769.92 946.91 770.21 946.12 770.21L-283.25 770.21C-284.05 770.21 -296.4 769.92 -296.4 769.64C-296.4 652.42 -296.4 75.8 -296.4 44.01C-296.4 -3.73 -296.4 -34.43 -296.4 -49.26Z" style="fill: rgb(178, 180, 182); opacity: 0.878;"/>
        <path id="&lt;Path&gt;" class="shp41" d="M-294.12 -48.89C-290.48 -49.12 -285.94 -49.35 -280.96 -49.35C-260.46 -49.35 -218.39 -49.3 -165.29 -49.3L825.2 -48.94C857.47 -48.94 912.37 -48.89 945.67 -48.89C950.42 -48.89 955.02 -48.66 958.82 -48.44C958.82 -25.53 958.82 -7.91 958.82 6.83C958.82 39.5 958.82 368.83 958.82 768.53C958.82 768.76 946.29 768.99 945.65 768.99L-280.96 768.99C-281.6 768.99 -294.12 768.76 -294.12 768.53C-294.12 648.06 -294.12 76.88 -294.12 44.21C-294.12 -4.86 -294.12 -33.66 -294.12 -48.89Z" style="fill: rgb(176, 178, 180); opacity: 0.902;"/>
        <path id="&lt;Path&gt;" class="shp42" d="M-291.83 -48.53C-288.1 -48.7 -283.6 -48.87 -278.67 -48.87C-257.62 -48.87 -217.79 -48.84 -163.26 -48.84L825.01 -48.56C858.14 -48.56 911.01 -48.53 945.21 -48.53C949.91 -48.53 954.46 -48.36 958.37 -48.19C958.37 -24.66 958.37 -8.15 958.37 6.99C958.37 40.54 958.37 356.93 958.37 767.43C958.37 767.6 945.67 767.77 945.19 767.77L-278.67 767.77C-279.15 767.77 -291.83 767.6 -291.83 767.43C-291.83 643.7 -291.83 77.96 -291.83 44.41C-291.83 -5.99 -291.83 -32.88 -291.83 -48.53Z" style="fill: rgb(174, 175, 178); opacity: 0.925;"/>
        <path id="&lt;Path&gt;" class="shp43" d="M-289.55 -48.17C-285.72 -48.28 -281.27 -48.39 -276.38 -48.39C-254.77 -48.39 -217.2 -48.37 -161.23 -48.37L824.81 -48.19C858.82 -48.19 909.65 -48.17 944.75 -48.17C949.4 -48.17 953.9 -48.05 957.91 -47.94C957.91 -23.79 957.91 -8.39 957.91 7.15C957.91 41.58 957.91 345.02 957.91 766.33C957.91 766.44 945.05 766.55 944.73 766.55L-276.38 766.55C-276.7 766.55 -289.55 766.44 -289.55 766.33C-289.55 639.34 -289.55 79.04 -289.55 44.6C-289.55 -7.12 -289.55 -32.11 -289.55 -48.17Z" style="fill: rgb(171, 173, 176); opacity: 0.953;"/>
        <path id="&lt;Path&gt;" class="shp44" d="M-287.26 -47.8C-283.34 -47.86 -278.94 -47.92 -274.09 -47.92C-251.93 -47.92 -216.6 -47.91 -159.19 -47.91L824.62 -47.82C859.5 -47.81 908.29 -47.8 944.29 -47.8C948.89 -47.8 953.35 -47.75 957.46 -47.69C957.46 -22.92 957.46 -8.63 957.46 7.31C957.46 42.63 957.46 333.11 957.46 765.22C957.46 765.28 944.43 765.34 944.27 765.34L-274.09 765.34C-274.25 765.34 -287.26 765.28 -287.26 765.22C-287.26 634.98 -287.26 80.11 -287.26 44.8C-287.26 -8.25 -287.26 -31.33 -287.26 -47.8Z" style="fill: rgb(169, 171, 174); opacity: 0.976;"/>
        <path id="&lt;Path&gt;" class="shp45" d="M957 7.47C957 43.67 957 321.2 957 764.12L-284.98 764.12C-284.98 630.62 -284.98 81.19 -284.98 45C-284.98 -9.38 -284.98 -30.56 -284.98 -47.44C-261.94 -47.44 -228.46 -47.44 -157.16 -47.44L824.42 -47.44C864.59 -47.44 918.63 -47.44 957 -47.44C957 -22.05 957 -8.87 957 7.47Z" style="fill: rgb(153, 153, 153);"/>
      </g>
      <path id="&lt;Path&gt;" class="shp46" d="M993.59 768.06L-293.59 768.06L-293.59 -68.06L993.59 -68.06L993.59 768.06Z"/>
      <g id="&lt;Group&gt;">
        <g id="&lt;Group&gt;">
          <path id="&lt;Path&gt;" class="shp1" d="M909.26 -68.39C909.26 -84.69 895.87 -97.89 879.37 -97.89C862.85 -97.89 849.47 -84.69 849.47 -68.39C849.47 -52.09 862.85 -38.88 879.37 -38.88C895.87 -38.88 909.26 -52.09 909.26 -68.39Z" style="fill: rgb(208, 210, 211); mix-blend-mode: multiply;"/>
          <path id="&lt;Path&gt;" class="shp3" d="M1100 -150L1100 60.02C1094.94 58.17 1090.01 56.14 1085.19 53.87C1082.02 52.41 1078.94 50.89 1075.86 49.28C1031.23 25.66 996.67 -14.06 980.15 -62C979.82 -63.05 979.49 -64.09 979.16 -65.13C978.16 -68.07 977.31 -71.04 976.46 -74.08C975.7 -76.82 975.04 -79.57 974.42 -82.36C974.39 -82.36 974.38 -82.37 974.38 -82.4C974.28 -82.97 974.14 -83.54 974 -84.11C973.67 -85.72 973.34 -87.33 973 -88.99C972.11 -93.86 971.35 -98.83 970.78 -103.85C970.54 -105.74 970.35 -107.68 970.21 -109.57C969.83 -113.98 969.64 -118.38 969.6 -122.83C969.55 -123.82 969.55 -124.87 969.55 -125.86L969.55 -127.94C969.6 -132.01 969.79 -136.08 970.07 -140.1C970.16 -141.67 970.3 -143.23 970.45 -144.79C970.64 -146.55 970.83 -148.29 971.02 -150L1100 -150Z" style="fill: rgb(219, 220, 221); mix-blend-mode: multiply;"/>
        </g>
        <path id="&lt;Compound Path&gt;" fill-rule="evenodd" class="shp1" d="M806.39 -55.19C806.39 -39.14 793.28 -26.12 776.99 -26.12C760.71 -26.12 747.55 -39.14 747.55 -55.19C747.55 -71.24 760.71 -84.25 776.99 -84.25C793.28 -84.25 806.39 -71.24 806.39 -55.19ZM796.21 -55.19C796.21 -65.65 787.6 -74.17 776.99 -74.17C766.39 -74.17 757.72 -65.65 757.72 -55.19C757.72 -44.73 766.39 -36.21 776.99 -36.21C787.6 -36.21 796.21 -44.73 796.21 -55.19Z" style="fill: rgb(208, 210, 211); mix-blend-mode: multiply;"/>
        <path id="&lt;Path&gt;" class="shp1" d="M1069.71 -150C1079.32 -146.02 1089.44 -143.04 1100 -141.24L1100 -150L1069.71 -150Z" style="fill: rgb(208, 210, 211); mix-blend-mode: multiply;"/>
        <path id="&lt;Compound Path&gt;" fill-rule="evenodd" class="shp3" d="M987.68 -92.25C990.61 -93.67 993.59 -94.9 996.72 -95.99C997.14 -96.13 997.57 -96.32 998 -96.42C1006.99 -99.44 1016.64 -101.1 1026.68 -101.1C1057.02 -101.1 1083.86 -86.1 1100 -63.18L1100 -44.07C1087.74 -72.04 1059.48 -91.64 1026.68 -91.64C1014.89 -91.64 1003.68 -89.08 993.59 -84.54C992.83 -84.25 992.13 -83.88 991.37 -83.5L984.22 -90.55C985.36 -91.11 986.49 -91.68 987.68 -92.25Z" style="fill: rgb(219, 220, 221); mix-blend-mode: multiply;"/>
        <path id="&lt;Path&gt;" class="shp1" d="M1067.86 -122.55L1100 -90.83L1100 -87.52L1066.2 -120.89C1065.73 -121.32 1065.73 -122.07 1066.2 -122.55C1066.44 -122.73 1066.78 -122.83 1067.06 -122.83C1067.34 -122.83 1067.67 -122.73 1067.86 -122.55Z" style="fill: rgb(208, 210, 211); mix-blend-mode: multiply;"/>
        <path id="&lt;Compound Path&gt;" fill-rule="evenodd" class="shp1" d="M1080.6 106.41C1080.6 117.63 1071.37 126.72 1060 126.72C1048.65 126.72 1039.46 117.63 1039.46 106.41C1039.46 101.82 1041.02 97.56 1043.67 94.15C1044.38 93.2 1045.19 92.31 1046.14 91.5C1049.78 88.19 1054.66 86.15 1060 86.15C1071.37 86.15 1080.6 95.24 1080.6 106.41ZM1076.67 106.41C1076.67 97.37 1069.19 89.99 1060 89.99C1055.75 89.99 1051.82 91.59 1048.88 94.2C1047.98 95.01 1047.18 95.9 1046.46 96.9C1044.52 99.59 1043.34 102.91 1043.34 106.41C1043.34 115.5 1050.82 122.88 1060 122.88C1069.19 122.88 1076.67 115.5 1076.67 106.41Z" style="fill: rgb(208, 210, 211); mix-blend-mode: multiply;"/>
        <path id="&lt;Compound Path&gt;" fill-rule="evenodd" class="shp1" d="M1022.79 20.31C1022.79 22.05 1022.51 23.76 1021.97 25.35C1021.66 26.36 1021.2 27.32 1020.7 28.25C1019.42 30.58 1017.56 32.52 1015.35 33.99C1014.49 34.53 1013.57 35.04 1012.55 35.42C1010.62 36.23 1008.49 36.66 1006.24 36.66C1005.39 36.66 1004.54 36.58 1003.72 36.43C1001.05 36.08 998.61 35.04 996.52 33.52C995.16 32.56 993.92 31.35 992.95 30C991.37 27.94 990.32 25.5 989.93 22.83C989.78 22.02 989.7 21.16 989.7 20.31C989.7 18.07 990.16 15.93 990.98 13.99C991.4 13.03 991.9 12.1 992.49 11.25C993.92 9.08 995.9 7.3 998.19 6.06C999.12 5.51 1000.08 5.09 1001.13 4.78C1002.72 4.23 1004.46 3.96 1006.24 3.96C1007.95 3.96 1009.57 4.23 1011.13 4.7C1016.35 6.29 1020.46 10.35 1022.09 15.54C1022.51 17.06 1022.79 18.65 1022.79 20.31ZM1017.05 20.47L1017.05 20.31C1017.05 14.42 1012.21 9.66 1006.24 9.66L1006.09 9.66C1004.85 9.66 1003.65 9.89 1002.52 10.32C999.96 11.21 997.87 13.03 996.63 15.39C996.09 16.36 995.74 17.41 995.55 18.53C995.43 19.11 995.39 19.69 995.39 20.31C995.39 26.2 1000.27 30.97 1006.24 30.97C1006.82 30.97 1007.37 30.93 1007.91 30.81C1009.04 30.66 1010.12 30.31 1011.13 29.8C1013.52 28.61 1015.42 26.55 1016.39 23.99C1016.82 22.91 1017.05 21.71 1017.05 20.47Z" style="fill: rgb(208, 210, 211); mix-blend-mode: multiply;"/>
        <path id="&lt;Compound Path&gt;" fill-rule="evenodd" class="shp1" d="M883.79 -40.69C883.79 -39.83 883.65 -38.99 883.38 -38.2C883.23 -37.7 883 -37.23 882.75 -36.77C882.12 -35.62 881.19 -34.66 880.1 -33.94C879.67 -33.67 879.21 -33.42 878.71 -33.23C877.75 -32.83 876.69 -32.61 875.58 -32.61C875.15 -32.61 874.73 -32.65 874.33 -32.73C873 -32.9 871.79 -33.42 870.75 -34.16C870.08 -34.64 869.46 -35.24 868.98 -35.91C868.19 -36.92 867.67 -38.13 867.48 -39.45C867.4 -39.85 867.36 -40.27 867.36 -40.69C867.36 -41.8 867.59 -42.85 868 -43.81C868.21 -44.29 868.46 -44.75 868.75 -45.17C869.46 -46.24 870.44 -47.12 871.58 -47.73C872.04 -48 872.52 -48.21 873.04 -48.36C873.83 -48.63 874.69 -48.77 875.58 -48.77C876.42 -48.77 877.23 -48.63 878 -48.4C880.6 -47.62 882.63 -45.61 883.44 -43.04C883.65 -42.3 883.79 -41.51 883.79 -40.69ZM880.94 -40.61L880.94 -40.69C880.94 -43.6 878.54 -45.95 875.58 -45.95L875.5 -45.95C874.88 -45.95 874.29 -45.84 873.73 -45.63C872.46 -45.19 871.42 -44.29 870.81 -43.12C870.54 -42.64 870.36 -42.13 870.27 -41.57C870.21 -41.28 870.19 -41 870.19 -40.69C870.19 -37.78 872.61 -35.43 875.58 -35.43C875.87 -35.43 876.13 -35.45 876.4 -35.5C876.96 -35.58 877.5 -35.75 878 -36C879.19 -36.59 880.13 -37.61 880.61 -38.87C880.83 -39.41 880.94 -40 880.94 -40.61Z" style="fill: rgb(208, 210, 211); mix-blend-mode: multiply;"/>
        <path id="&lt;Compound Path&gt;" fill-rule="evenodd" class="shp1" d="M1027.79 -59.88C1027.79 -59.31 1027.7 -58.74 1027.52 -58.22C1027.42 -57.88 1027.26 -57.57 1027.1 -57.26C1026.67 -56.49 1026.05 -55.85 1025.32 -55.36C1025.04 -55.18 1024.73 -55.02 1024.39 -54.89C1023.75 -54.62 1023.04 -54.48 1022.3 -54.48C1022.01 -54.48 1021.73 -54.5 1021.46 -54.56C1020.57 -54.67 1019.76 -55.02 1019.06 -55.52C1018.61 -55.83 1018.2 -56.23 1017.88 -56.68C1017.35 -57.36 1017 -58.17 1016.88 -59.05C1016.82 -59.32 1016.8 -59.6 1016.8 -59.88C1016.8 -60.63 1016.95 -61.33 1017.22 -61.97C1017.37 -62.29 1017.53 -62.6 1017.72 -62.88C1018.2 -63.6 1018.86 -64.19 1019.62 -64.6C1019.93 -64.78 1020.25 -64.92 1020.6 -65.02C1021.12 -65.2 1021.7 -65.29 1022.3 -65.29C1022.86 -65.29 1023.4 -65.2 1023.91 -65.05C1025.65 -64.52 1027.02 -63.17 1027.56 -61.46C1027.7 -60.96 1027.79 -60.43 1027.79 -59.88ZM1025.89 -59.83L1025.89 -59.88C1025.89 -61.83 1024.28 -63.41 1022.3 -63.41L1022.24 -63.41C1021.83 -63.41 1021.43 -63.33 1021.06 -63.19C1020.21 -62.89 1019.52 -62.29 1019.1 -61.51C1018.92 -61.19 1018.8 -60.84 1018.74 -60.47C1018.7 -60.28 1018.69 -60.09 1018.69 -59.88C1018.69 -57.94 1020.31 -56.36 1022.3 -56.36C1022.49 -56.36 1022.66 -56.37 1022.85 -56.41C1023.22 -56.46 1023.58 -56.58 1023.91 -56.75C1024.71 -57.14 1025.34 -57.82 1025.67 -58.67C1025.81 -59.02 1025.89 -59.42 1025.89 -59.83Z" style="fill: rgb(208, 210, 211); mix-blend-mode: multiply;"/>
        <path id="&lt;Compound Path&gt;" fill-rule="evenodd" class="shp2" d="M1056.12 101.39C1054.85 101.87 1053.52 102.25 1052.24 102.67L1046.46 96.9L1043.67 94.15L1024.83 75.45L1014.42 65.14L947.59 -1.27L937.31 -11.5L912.51 -36.12L906.83 -41.75L891.73 -56.75L886.15 -62.29L797.87 -150L803.03 -150L887.99 -65.65L893.05 -60.59L910.76 -42.97L915.92 -37.86L937.36 -16.56L946.97 -7.05L1020.25 65.75L1029.99 75.45L1046.14 91.5L1048.88 94.2L1056.12 101.39ZM1038.18 47.58C1037.09 48.24 1036.05 48.9 1034.96 49.52L949.9 -34.78L942.43 -42.26L924.15 -60.39L910.76 -73.65L833.75 -150L838.95 -150L943.84 -45.96L951.19 -38.71L1038.18 47.58ZM963.68 -44.87C962.73 -44.07 961.79 -43.31 960.79 -42.55L955.21 -48.04L948.15 -55.05L851.92 -150L857.18 -150L950.09 -58.27L957 -51.45L963.68 -44.87ZM920.42 1.66C918.76 1.75 917.1 1.8 915.44 1.8L782.15 -130.03C782.15 -131.63 782.2 -133.29 782.34 -134.94L920.42 1.66ZM881.13 -19.69C879.09 -19.88 877.11 -20.11 875.12 -20.45L783.47 -110.9C783.15 -112.89 782.91 -114.87 782.67 -116.81L881.13 -19.69ZM972.91 -53.53C972.11 -52.68 971.3 -51.83 970.45 -50.97C970.4 -50.97 970.4 -50.93 970.35 -50.88L962.07 -59.12L955.25 -65.84L870.43 -150L875.64 -150L957.57 -68.72L964.29 -62.05L972.91 -53.53ZM915.3 -21.44C913.83 -21.16 912.42 -20.87 910.95 -20.63L892.91 -38.43L888.56 -42.74L783.67 -146.26C783.9 -147.54 784.14 -148.77 784.42 -150L785.09 -150L884.87 -51.5L901.71 -34.88L915.3 -21.44ZM981.1 -63.18C980.81 -62.8 980.53 -62.38 980.15 -62C979.77 -61.44 979.3 -60.87 978.83 -60.3L970.3 -68.68L963.63 -75.3L887.94 -150L893.2 -150L966.28 -77.81L973 -71.19L979.16 -65.13L981.1 -63.18ZM1002.73 -125.62L978.02 -150L983.23 -150L1002.68 -130.78C1002.73 -129.03 1002.73 -127.37 1002.73 -125.62ZM1001.83 -113.84C1001.59 -112.41 1001.4 -110.9 1001.12 -109.43L970.07 -140.1L960.03 -150L965.19 -150L970.45 -144.79L1001.83 -113.84ZM988.24 -73.93C987.63 -72.85 986.97 -71.8 986.26 -70.71L980.1 -76.82L974.42 -82.36C974.39 -82.36 974.38 -82.37 974.38 -82.4L973.24 -83.54L905.93 -150L911.18 -150L973 -88.99L976.32 -85.72L983.18 -78.9L988.24 -73.93ZM1001.45 -144.65L996.05 -150L1000.46 -150C1000.84 -148.25 1001.17 -146.45 1001.45 -144.65ZM994.16 -85.86C993.97 -85.44 993.79 -84.96 993.59 -84.54C993.26 -83.78 992.98 -83.02 992.6 -82.27L991.37 -83.5L984.22 -90.55L970.78 -103.85L924.15 -150L929.36 -150L970.21 -109.57L987.68 -92.25L994.16 -85.86ZM998.8 -99.06C998.56 -98.17 998.28 -97.27 998 -96.42C997.9 -95.99 997.76 -95.57 997.62 -95.13L996.72 -95.99L969.6 -122.83L942.04 -150L947.2 -150L969.55 -127.94L998.8 -99.06ZM1045.19 -127.75C1044.72 -127.28 1044.01 -127.28 1043.54 -127.75L1021 -150L1024.27 -150L1045.19 -129.36C1045.66 -128.89 1045.66 -128.18 1045.19 -127.75ZM942 -30.67C940.96 -30.15 939.91 -29.63 938.83 -29.15C938.73 -29.11 938.59 -29.06 938.5 -29.01L922.45 -44.87L917.2 -50.07L900.25 -66.79L894.95 -71.99L815.95 -150L821.11 -150L898.54 -73.55L904.61 -67.59L918 -54.38L924.01 -48.42L939.63 -32.99L942 -30.67ZM858.26 -24.42C855.47 -25.32 852.73 -26.32 850.03 -27.45L790.53 -86.14C789.44 -88.84 788.45 -91.54 787.5 -94.24L858.26 -24.42Z" style="fill: rgb(237, 237, 238); mix-blend-mode: multiply;"/>
        <path id="&lt;Path&gt;" class="shp3" d="M855.34 -100.67C855.34 -94.59 850.41 -89.67 844.33 -89.67C838.26 -89.67 833.33 -94.59 833.33 -100.67C833.33 -106.74 838.26 -111.67 844.33 -111.67C850.41 -111.67 855.34 -106.74 855.34 -100.67Z" style="fill: rgb(219, 220, 221); mix-blend-mode: multiply;"/>
        <path id="&lt;Path&gt;" class="shp3" d="M944 -109.33C944 -107.68 942.66 -106.33 941 -106.33C939.34 -106.33 938 -107.68 938 -109.33C938 -110.99 939.34 -112.33 941 -112.33C942.66 -112.33 944 -110.99 944 -109.33Z" style="fill: rgb(219, 220, 221); mix-blend-mode: multiply;"/>
        <path id="&lt;Path&gt;" class="shp3" d="M1033.81 -113.25C1033.81 -110.45 1031.55 -108.19 1028.75 -108.19C1025.95 -108.19 1023.69 -110.45 1023.69 -113.25C1023.69 -116.05 1025.95 -118.31 1028.75 -118.31C1031.55 -118.31 1033.81 -116.05 1033.81 -113.25Z" style="fill: rgb(219, 220, 221); mix-blend-mode: multiply;"/>
        <path id="&lt;Path&gt;" class="shp3" d="M1063.31 -63.75C1063.31 -59.02 1059.48 -55.18 1054.75 -55.18C1050.02 -55.18 1046.19 -59.02 1046.19 -63.75C1046.19 -68.48 1050.02 -72.31 1054.75 -72.31C1059.48 -72.31 1063.31 -68.48 1063.31 -63.75Z" style="fill: rgb(219, 220, 221); mix-blend-mode: multiply;"/>
      </g>
    </g>
    <g id="Designs">
      <g id="&lt;Group&gt;">
        <path id="&lt;Compound Path&gt;" fill-rule="evenodd" class="shp47" d="M465.06 243.42L465.06 275.19L437.55 291.08L437.55 322.85L465.06 306.97L465.06 383.34L343.89 453.3L343.89 313.38L465.06 243.42ZM410.03 306.97L371.4 329.27L371.4 373.85L410.03 351.58L410.03 306.97Z" style="fill: rgb(36, 14, 67);"/>
        <g id="&lt;Group&gt;">
          <path id="&lt;Path&gt;" class="shp48" d="M371.4 373.85L371.4 405.65L437.55 367.46L437.55 291.08L410.03 306.97L410.03 351.58L371.4 373.85Z" style="fill: url(#grd1);"/>
          <path id="&lt;Path&gt;" class="shp49" d="M437.55 367.46L437.55 291.08L410.03 306.97L410.03 351.58L437.55 367.46Z" style="fill: url(#grd2);"/>
          <path id="&lt;Path&gt;" class="shp50" d="M437.55 322.85L465.06 306.97L437.55 291.08L410.03 306.97L437.55 322.85Z" style="fill: url(#grd3);"/>
          <path id="&lt;Path&gt;" class="shp51" d="M410.03 351.58L410.03 306.97L371.4 329.27L371.4 373.85L410.03 351.58Z" style="fill: url(#grd4);"/>
        </g>
        <path id="&lt;Path&gt;" class="shp52" d="M343.89 313.38L465.06 243.42L343.89 173.47L277.74 211.66L305.25 227.54L277.74 243.42L250.23 227.54L222.71 243.42L343.89 313.38Z" style="fill: rgb(232, 243, 162);"/>
        <path id="&lt;Path&gt;" class="shp53" d="M343.89 237.01L382.49 259.33L343.89 281.62L305.25 259.31L343.89 237.01Z" style="fill: url(#grd5);"/>
        <g id="&lt;Group&gt;">
          <path id="&lt;Path&gt;" class="shp54" d="M382.49 259.33L410.03 243.42L343.89 205.23L277.74 243.42L305.26 259.31L343.89 237L382.49 259.33Z" style="fill: url(#grd6);"/>
          <path id="&lt;Path&gt;" class="shp55" d="M343.89 205.23L277.74 243.42L305.26 259.31L343.89 237L343.89 205.23Z" style="fill: url(#grd7);"/>
          <path id="&lt;Path&gt;" class="shp56" d="M305.25 227.54L277.74 211.65L277.74 243.42L305.26 259.31L305.25 227.54Z" style="fill: url(#grd8);"/>
          <path id="&lt;Path&gt;" class="shp57" d="M343.89 237L305.26 259.31L343.89 281.62L382.49 259.33L343.89 237Z" style="fill: rgb(30, 243, 232);"/>
        </g>
        <path id="&lt;Compound Path&gt;" fill-rule="evenodd" class="shp58" d="M343.89 453.3L316.37 437.42L316.37 405.65L288.86 389.76L288.86 421.53L222.71 383.34L222.71 243.43L343.89 313.38L343.89 453.3ZM316.37 373.88L316.37 329.27L277.77 306.98L277.74 351.57L316.37 373.88Z" style="fill: rgb(43, 85, 132);"/>
        <g id="&lt;Group&gt;">
          <path id="&lt;Path&gt;" class="shp59" d="M277.77 306.98L250.23 291.08L250.23 367.46L316.38 405.65L316.38 373.88L277.74 351.57L277.77 306.98Z" style="fill: url(#grd10);"/>
          <path id="&lt;Path&gt;" class="shp60" d="M250.23 367.46L316.38 405.65L316.38 373.88L277.74 351.57L250.23 367.46Z" style="fill: url(#grd11);"/>
          <path id="&lt;Path&gt;" class="shp61" d="M288.86 389.76L288.86 421.53L316.38 405.65L316.38 373.88L288.86 389.76Z" style="fill: url(#grd12);"/>
          <path id="&lt;Path&gt;" class="shp62" d="M277.74 351.57L316.38 373.88L316.38 329.27L277.77 306.98L277.74 351.57Z" style="fill: rgb(117, 169, 202);"/>
        </g>
      </g>
      <text style="fill: rgb(251, 185, 134); font-family: &quot;Arial Black&quot;; font-size: 72.6px; paint-order: stroke; white-space: pre;" transform="matrix(2.767311, 0, 0, 1.503263, -198.240601, -171.762451)" x="137.989" y="475.134">HV</text>
    </g>
  </g>
</svg>